<svg width="31" height="30" viewBox="0 0 31 30" fill="none" xmlns="http://www.w3.org/2000/svg">
<g clip-path="url(#clip0_30_3745)">
<path d="M20.3302 5.97188C20.0658 5.9694 19.813 5.86263 19.6269 5.67477C19.4408 5.48692 19.3364 5.23318 19.3364 4.96875C19.3364 4.7027 19.2307 4.44756 19.0426 4.25943C18.8545 4.07131 18.5993 3.96563 18.3333 3.96563H12.3333C12.2016 3.96563 12.0711 3.99157 11.9494 4.04198C11.8277 4.0924 11.7171 4.16628 11.624 4.25943C11.5308 4.35258 11.4569 4.46317 11.4065 4.58487C11.3561 4.70658 11.3302 4.83702 11.3302 4.96875C11.3437 5.108 11.3279 5.24853 11.2839 5.38132C11.2399 5.51411 11.1685 5.63622 11.0745 5.73981C10.9805 5.8434 10.8658 5.92618 10.7379 5.98283C10.61 6.03947 10.4716 6.06874 10.3317 6.06874C10.1918 6.06874 10.0535 6.03947 9.92557 5.98283C9.79765 5.92618 9.68299 5.8434 9.58896 5.73981C9.49494 5.63622 9.42362 5.51411 9.37959 5.38132C9.33556 5.24853 9.31979 5.108 9.3333 4.96875C9.3333 4.1731 9.64937 3.41004 10.212 2.84743C10.7746 2.28482 11.5377 1.96875 12.3333 1.96875H18.3333C19.129 1.96875 19.892 2.28482 20.4546 2.84743C21.0172 3.41004 21.3333 4.1731 21.3333 4.96875C21.3333 5.2348 21.2276 5.48994 21.0395 5.67807C20.8514 5.86619 20.5962 5.97188 20.3302 5.97188Z" fill="#981B1E"/>
<path d="M30.3333 12.9656C30.3308 11.6411 29.8035 10.3716 28.867 9.43504C27.9304 8.49848 26.6609 7.97123 25.3364 7.96875H5.33013C4.42299 7.97033 3.53326 8.21791 2.75568 8.68512C1.9781 9.15232 1.34179 9.82167 0.914502 10.6219C0.820066 10.852 0.814533 11.1091 0.898978 11.3431C0.983424 11.5771 1.15182 11.7714 1.37147 11.8883C1.59112 12.0051 1.84635 12.0361 2.08761 11.9754C2.32886 11.9146 2.53892 11.7663 2.677 11.5594C2.93372 11.0759 3.3171 10.6712 3.7861 10.3889C4.25509 10.1065 4.79205 9.95693 5.3395 9.95625H25.3364C26.132 9.95625 26.8951 10.2723 27.4577 10.8349C28.0203 11.3975 28.3364 12.1606 28.3364 12.9562V14.2031L16.7114 17.5219C15.8138 17.779 14.8621 17.779 13.9645 17.5219L1.60825 14.0062C1.45719 13.9695 1.29977 13.9674 1.14778 14C0.99578 14.0327 0.853137 14.0993 0.730515 14.1949C0.607893 14.2905 0.508467 14.4125 0.439673 14.5519C0.37088 14.6914 0.334499 14.8445 0.333252 15L0.333252 24C0.343135 25.3196 0.873652 26.5819 1.80941 27.5124C2.74517 28.4429 4.01048 28.9663 5.33013 28.9688H25.3364C26.6609 28.9663 27.9304 28.439 28.867 27.5025C29.8035 26.5659 30.3308 25.2964 30.3333 23.9719V18.9656C30.3092 18.7175 30.1936 18.4873 30.009 18.3197C29.8244 18.1522 29.5841 18.0594 29.3348 18.0594C29.0855 18.0594 28.8452 18.1522 28.6606 18.3197C28.476 18.4873 28.3604 18.7175 28.3364 18.9656V23.9625C28.3364 24.7581 28.0203 25.5212 27.4577 26.0838C26.8951 26.6464 26.132 26.9625 25.3364 26.9625H5.33013C4.53448 26.9625 3.77142 26.6464 3.20881 26.0838C2.6462 25.5212 2.33013 24.7581 2.33013 23.9625V16.2937L13.4114 19.4625C14.6674 19.822 15.9991 19.822 17.2551 19.4625L29.6114 15.9375C29.8113 15.8708 29.9868 15.7459 30.1154 15.5789C30.244 15.4119 30.3198 15.2104 30.3333 15V12.9656Z" fill="#981B1E"/>
</g>
<defs>
<clipPath id="clip0_30_3745">
<rect width="30" height="30" fill="white" transform="translate(0.333252)"/>
</clipPath>
</defs>
</svg>
