<svg width="31" height="30" viewBox="0 0 31 30" fill="none" xmlns="http://www.w3.org/2000/svg">
<g clip-path="url(#clip0_30_3700)">
<path d="M26.2721 15.712H23.3355C22.9358 15.712 22.5489 15.7667 22.1806 15.8671C21.4542 14.439 19.971 13.4578 18.262 13.4578H13.0712C11.3622 13.4578 9.87909 14.439 9.15264 15.8671C8.78438 15.7667 8.39743 15.712 7.99776 15.712H5.06116C2.63801 15.712 0.666626 17.6834 0.666626 20.1066V24.801C0.666626 26.2549 1.84946 27.4377 3.30334 27.4377H28.0299C29.4838 27.4377 30.6666 26.2549 30.6666 24.801V20.1066C30.6666 17.6834 28.6952 15.712 26.2721 15.712ZM8.67668 17.8525V25.68H3.30334C2.81872 25.68 2.42444 25.2857 2.42444 24.801V20.1066C2.42444 18.6527 3.60727 17.4699 5.06116 17.4699H7.99776C8.23635 17.4699 8.46739 17.5023 8.68735 17.562C8.68102 17.6582 8.67668 17.7549 8.67668 17.8525ZM20.8988 25.68H10.4345V17.8524C10.4345 16.3985 11.6173 15.2157 13.0712 15.2157H18.262C19.7159 15.2157 20.8988 16.3985 20.8988 17.8524V25.68ZM28.9088 24.801C28.9088 25.2857 28.5145 25.68 28.0299 25.68H22.6566V17.8524C22.6566 17.7547 22.6522 17.6581 22.6459 17.562C22.8659 17.5023 23.0969 17.4699 23.3355 17.4699H26.2721C27.726 17.4699 28.9088 18.6527 28.9088 20.1066V24.801Z" fill="#981B1E"/>
<path d="M6.52955 7.41235C4.37629 7.41235 2.62451 9.16413 2.62451 11.3174C2.62445 13.4707 4.37629 15.2224 6.52955 15.2224C8.68275 15.2224 10.4346 13.4707 10.4346 11.3174C10.4346 9.16413 8.68281 7.41235 6.52955 7.41235ZM6.52949 13.4646C5.34549 13.4646 4.38227 12.5014 4.38227 11.3174C4.38227 10.1334 5.34549 9.17017 6.52949 9.17017C7.7135 9.17017 8.67672 10.1334 8.67672 11.3174C8.67672 12.5014 7.7135 13.4646 6.52949 13.4646Z" fill="#981B1E"/>
<path d="M15.6667 2.56226C12.7899 2.56226 10.4496 4.90261 10.4496 7.77933C10.4496 10.656 12.7899 12.9964 15.6667 12.9964C18.5434 12.9964 20.8837 10.656 20.8837 7.77933C20.8837 4.90267 18.5434 2.56226 15.6667 2.56226ZM15.6667 11.2386C13.7592 11.2386 12.2074 9.68679 12.2074 7.77933C12.2074 5.87192 13.7592 4.32007 15.6667 4.32007C17.5741 4.32007 19.1259 5.87186 19.1259 7.77933C19.1259 9.68679 17.5741 11.2386 15.6667 11.2386Z" fill="#981B1E"/>
<path d="M24.8037 7.41235C22.6505 7.41235 20.8987 9.16413 20.8987 11.3174C20.8987 13.4707 22.6505 15.2224 24.8037 15.2224C26.957 15.2224 28.7088 13.4707 28.7088 11.3174C28.7088 9.16413 26.957 7.41235 24.8037 7.41235ZM24.8037 13.4646C23.6198 13.4646 22.6565 12.5014 22.6565 11.3174C22.6566 10.1334 23.6198 9.17017 24.8037 9.17017C25.9877 9.17017 26.9509 10.1334 26.9509 11.3174C26.9509 12.5014 25.9877 13.4646 24.8037 13.4646Z" fill="#981B1E"/>
</g>
<defs>
<clipPath id="clip0_30_3700">
<rect width="30" height="30" fill="white" transform="translate(0.666626)"/>
</clipPath>
</defs>
</svg>
