<svg width="31" height="30" viewBox="0 0 31 30" fill="none" xmlns="http://www.w3.org/2000/svg">
<g clip-path="url(#clip0_296_5364)">
<path d="M26.5249 5.91798C26.8249 5.91798 27.1247 5.80355 27.3535 5.57474L28.877 4.0513C29.3347 3.59369 29.3346 2.85171 28.877 2.39404C28.4194 1.93636 27.6774 1.93636 27.2197 2.39404L25.6963 3.91748C25.2386 4.37509 25.2386 5.11707 25.6963 5.57474C25.9251 5.80355 26.225 5.91798 26.5249 5.91798Z" fill="#981B1E"/>
<path d="M21.8374 4.57031C22.4846 4.57031 23.0093 4.04566 23.0093 3.39844V1.17188C23.0093 0.524648 22.4846 0 21.8374 0C21.1902 0 20.6655 0.524648 20.6655 1.17188V3.39844C20.6655 4.04566 21.1902 4.57031 21.8374 4.57031Z" fill="#981B1E"/>
<path d="M16.3149 5.57472C16.5437 5.80353 16.8436 5.91796 17.1436 5.91796C17.4435 5.91796 17.7434 5.80353 17.9722 5.57472C18.4299 5.1171 18.4299 4.37513 17.9722 3.91745L16.4488 2.39402C15.9911 1.93634 15.2492 1.9364 14.7915 2.39402C14.3338 2.85163 14.3338 3.59361 14.7915 4.05128L16.3149 5.57472Z" fill="#981B1E"/>
<path d="M24.1206 11.8549L26.0987 9.33727C26.3097 9.06879 26.393 8.72174 26.327 8.38682C26.2611 8.05189 26.0523 7.76232 25.7553 7.59393L23.999 6.59783C23.8227 6.49787 23.6235 6.44531 23.4208 6.44531H20.2613C20.0536 6.44531 19.8496 6.50051 19.6702 6.60527L17.965 7.60137C17.6725 7.77228 17.4682 8.06139 17.4048 8.39414C17.3415 8.72689 17.4253 9.07084 17.6346 9.33727L19.6025 11.8418C18.753 12.0737 17.9562 12.4339 17.2343 12.9011C15.4392 11.1553 12.9904 10.0781 10.2944 10.0781C4.80197 10.0781 0.333496 14.5466 0.333496 20.0391C0.333496 25.5315 4.80197 30 10.2944 30C11.5548 30 12.7837 29.7674 13.947 29.3087C14.549 29.0712 14.8447 28.3907 14.6073 27.7886C14.3698 27.1865 13.6894 26.891 13.0872 27.1283C12.1988 27.4787 11.2592 27.6562 10.2944 27.6562C6.09432 27.6562 2.67725 24.2392 2.67725 20.0391C2.67725 15.8389 6.09432 12.4219 10.2944 12.4219C12.2827 12.4219 14.0951 13.1879 15.453 14.44C14.1392 15.9362 13.3413 17.8961 13.3413 20.0391C13.3413 24.7238 17.1527 28.5352 21.8374 28.5352C22.8415 28.5352 23.8248 28.3614 24.7601 28.0188C25.3678 27.7961 25.6799 27.123 25.4573 26.5153C25.2346 25.9075 24.5615 25.5955 23.9537 25.818C23.2776 26.0658 22.5655 26.1914 21.8374 26.1914C18.445 26.1914 15.6851 23.4315 15.6851 20.0391C15.6851 18.6427 16.153 17.3537 16.9398 16.32C17.5582 17.4206 17.9116 18.6893 17.9116 20.0391C17.9116 20.2765 17.9006 20.5162 17.8788 20.7514C17.8192 21.3959 18.2934 21.9667 18.9378 22.0263C19.5824 22.0862 20.153 21.6118 20.2126 20.9673C20.241 20.6606 20.2554 20.3483 20.2554 20.0391C20.2554 18.0911 19.6928 16.2723 18.7224 14.7356C19.6366 14.1966 20.7014 13.8867 21.8374 13.8867C25.2298 13.8867 27.9897 16.6467 27.9897 20.0391C27.9897 20.8215 27.8453 21.5831 27.5602 22.3029C27.322 22.9047 27.6166 23.5857 28.2183 23.8239C28.8202 24.0623 29.5011 23.7676 29.7393 23.1658C30.1336 22.1702 30.3335 21.1182 30.3335 20.0391C30.3335 16.145 27.7 12.8548 24.1206 11.8549ZM21.8667 10.9299L20.3085 8.9468L20.5786 8.78906H23.1117L23.414 8.96057L21.8667 10.9299Z" fill="#981B1E"/>
</g>
<defs>
<clipPath id="clip0_296_5364">
<rect width="30" height="30" fill="white" transform="translate(0.333496)"/>
</clipPath>
</defs>
</svg>
