<svg width="565" height="100" viewBox="0 0 565 100" fill="none" xmlns="http://www.w3.org/2000/svg">
<path d="M152.016 59.656C152.016 63.912 151.312 67.576 149.904 70.648C148.496 73.688 146.432 76.04 143.712 77.704C140.992 79.336 137.648 80.152 133.68 80.152C130.704 80.152 128.16 79.752 126.048 78.952C123.936 78.152 122.272 77.272 121.056 76.312C119.872 75.32 119.136 74.584 118.848 74.104L122.976 65.416C123.36 65.96 123.92 66.632 124.656 67.432C125.424 68.2 126.432 68.888 127.68 69.496C128.96 70.072 130.528 70.36 132.384 70.36C134.528 70.36 136.304 69.88 137.712 68.92C139.12 67.928 140.176 66.52 140.88 64.696C141.584 62.872 141.936 60.68 141.936 58.12V15.64H152.016V59.656ZM181.489 80.152C177.361 80.152 173.681 79.256 170.449 77.464C167.249 75.64 164.737 73.176 162.913 70.072C161.089 66.936 160.177 63.384 160.177 59.416C160.177 55.448 161.089 51.88 162.913 48.712C164.737 45.544 167.249 43.048 170.449 41.224C173.681 39.368 177.361 38.44 181.489 38.44C185.617 38.44 189.265 39.368 192.433 41.224C195.601 43.048 198.081 45.544 199.873 48.712C201.697 51.88 202.609 55.448 202.609 59.416C202.609 63.384 201.697 66.936 199.873 70.072C198.081 73.176 195.601 75.64 192.433 77.464C189.265 79.256 185.617 80.152 181.489 80.152ZM181.489 71.512C183.793 71.512 185.793 70.984 187.489 69.928C189.185 68.872 190.497 67.432 191.425 65.608C192.353 63.784 192.817 61.704 192.817 59.368C192.817 57.032 192.353 54.952 191.425 53.128C190.497 51.272 189.185 49.8 187.489 48.712C185.793 47.624 183.793 47.08 181.489 47.08C179.185 47.08 177.169 47.624 175.441 48.712C173.745 49.8 172.417 51.272 171.457 53.128C170.529 54.952 170.065 57.032 170.065 59.368C170.065 61.704 170.529 63.784 171.457 65.608C172.417 67.432 173.745 68.872 175.441 69.928C177.169 70.984 179.185 71.512 181.489 71.512ZM211.091 79V12.952H221.363V46.456C221.587 45.496 222.339 44.392 223.619 43.144C224.899 41.896 226.611 40.808 228.755 39.88C230.899 38.92 233.347 38.44 236.099 38.44C239.811 38.44 243.091 39.336 245.939 41.128C248.787 42.888 251.011 45.336 252.611 48.472C254.243 51.608 255.059 55.224 255.059 59.32C255.059 63.416 254.243 67.032 252.611 70.168C251.011 73.304 248.787 75.752 245.939 77.512C243.091 79.272 239.811 80.152 236.099 80.152C233.571 80.152 231.251 79.688 229.139 78.76C227.059 77.8 225.331 76.664 223.955 75.352C222.579 74.04 221.667 72.824 221.219 71.704V79H211.091ZM244.931 59.32C244.931 56.792 244.403 54.584 243.347 52.696C242.291 50.808 240.899 49.352 239.171 48.328C237.443 47.272 235.539 46.744 233.459 46.744C231.219 46.744 229.187 47.288 227.363 48.376C225.539 49.432 224.083 50.904 222.995 52.792C221.907 54.648 221.363 56.824 221.363 59.32C221.363 61.816 221.907 64.008 222.995 65.896C224.083 67.752 225.539 69.208 227.363 70.264C229.187 71.32 231.219 71.848 233.459 71.848C235.539 71.848 237.443 71.336 239.171 70.312C240.899 69.288 242.291 67.832 243.347 65.944C244.403 64.056 244.931 61.848 244.931 59.32ZM258.725 39.592H269.717L281.573 69.592L293.429 39.592H304.373L287.621 79H275.573L258.725 39.592ZM312.458 79V39.592H322.682V79H312.458ZM317.69 27.784C315.962 27.784 314.474 27.16 313.226 25.912C312.01 24.664 311.402 23.176 311.402 21.448C311.402 19.72 312.01 18.232 313.226 16.984C314.474 15.704 315.962 15.064 317.69 15.064C318.842 15.064 319.898 15.368 320.858 15.976C321.85 16.552 322.634 17.32 323.21 18.28C323.818 19.208 324.122 20.264 324.122 21.448C324.122 23.176 323.498 24.664 322.25 25.912C321.002 27.16 319.482 27.784 317.69 27.784ZM341.714 61.72C341.778 63.8 342.274 65.672 343.202 67.336C344.13 69 345.49 70.312 347.282 71.272C349.106 72.2 351.33 72.664 353.954 72.664C356.226 72.664 358.178 72.36 359.81 71.752C361.474 71.112 362.85 70.36 363.938 69.496C365.026 68.6 365.826 67.768 366.338 67L370.898 73.192C369.906 74.536 368.658 75.736 367.154 76.792C365.65 77.848 363.778 78.664 361.538 79.24C359.33 79.848 356.594 80.152 353.33 80.152C349.042 80.152 345.314 79.272 342.146 77.512C338.978 75.752 336.514 73.272 334.754 70.072C333.026 66.872 332.162 63.128 332.162 58.84C332.162 55 332.962 51.544 334.562 48.472C336.162 45.368 338.482 42.92 341.522 41.128C344.594 39.336 348.274 38.44 352.562 38.44C356.562 38.44 360.034 39.24 362.978 40.84C365.922 42.44 368.194 44.744 369.794 47.752C371.426 50.728 372.242 54.328 372.242 58.552C372.242 58.808 372.226 59.336 372.194 60.136C372.194 60.936 372.162 61.464 372.098 61.72H341.714ZM362.642 54.232C362.61 53.208 362.258 52.04 361.586 50.728C360.946 49.416 359.906 48.28 358.466 47.32C357.026 46.328 355.106 45.832 352.706 45.832C350.242 45.832 348.242 46.312 346.706 47.272C345.17 48.2 344.034 49.32 343.298 50.632C342.562 51.912 342.13 53.112 342.002 54.232H362.642ZM400.411 71.848C402.683 71.848 404.523 71.48 405.931 70.744C407.371 69.976 408.299 69.416 408.715 69.064L413.563 76.264C413.179 76.584 412.379 77.064 411.163 77.704C409.947 78.312 408.395 78.872 406.507 79.384C404.651 79.896 402.539 80.152 400.171 80.152C396.267 80.152 392.715 79.336 389.515 77.704C386.347 76.04 383.803 73.656 381.883 70.552C379.995 67.416 379.051 63.656 379.051 59.272C379.051 54.856 379.995 51.096 381.883 47.992C383.803 44.888 386.347 42.52 389.515 40.888C392.715 39.256 396.267 38.44 400.171 38.44C402.507 38.44 404.587 38.712 406.411 39.256C408.267 39.768 409.803 40.36 411.019 41.032C412.235 41.704 413.051 42.232 413.467 42.616L408.523 49.816C408.299 49.592 407.835 49.24 407.131 48.76C406.459 48.248 405.563 47.784 404.443 47.368C403.323 46.952 401.979 46.744 400.411 46.744C398.491 46.744 396.651 47.256 394.891 48.28C393.131 49.304 391.691 50.76 390.571 52.648C389.451 54.504 388.891 56.712 388.891 59.272C388.891 61.832 389.451 64.056 390.571 65.944C391.691 67.832 393.131 69.288 394.891 70.312C396.651 71.336 398.491 71.848 400.411 71.848ZM431.56 79H421.24V12.952H431.56V79ZM474.048 79V71.704C473.792 72.472 473.056 73.528 471.84 74.872C470.656 76.216 469.024 77.432 466.944 78.52C464.896 79.608 462.464 80.152 459.648 80.152C455.968 80.152 452.656 79.272 449.712 77.512C446.768 75.752 444.448 73.304 442.752 70.168C441.056 67.032 440.208 63.416 440.208 59.32C440.208 55.224 441.056 51.608 442.752 48.472C444.448 45.336 446.768 42.888 449.712 41.128C452.656 39.336 455.968 38.44 459.648 38.44C462.4 38.44 464.784 38.92 466.8 39.88C468.816 40.84 470.432 41.944 471.648 43.192C472.896 44.44 473.664 45.528 473.952 46.456V39.592H484.128V79H474.048ZM450.336 59.32C450.336 61.848 450.896 64.056 452.016 65.944C453.136 67.832 454.592 69.288 456.384 70.312C458.208 71.336 460.16 71.848 462.24 71.848C464.48 71.848 466.464 71.32 468.192 70.264C469.952 69.208 471.328 67.752 472.32 65.896C473.344 64.008 473.856 61.816 473.856 59.32C473.856 56.824 473.344 54.648 472.32 52.792C471.328 50.904 469.952 49.432 468.192 48.376C466.464 47.288 464.48 46.744 462.24 46.744C460.16 46.744 458.208 47.272 456.384 48.328C454.592 49.352 453.136 50.808 452.016 52.696C450.896 54.584 450.336 56.792 450.336 59.32ZM544.082 38.44C547.026 38.44 549.554 39.064 551.666 40.312C553.81 41.56 555.458 43.48 556.61 46.072C557.794 48.664 558.386 51.976 558.386 56.008V79H548.258V57.832C548.258 54.024 547.714 51.128 546.626 49.144C545.57 47.16 543.569 46.168 540.625 46.168C539.026 46.168 537.522 46.6 536.114 47.464C534.706 48.328 533.57 49.624 532.706 51.352C531.874 53.048 531.458 55.208 531.458 57.832V79H521.954V57.832C521.954 54.024 521.298 51.128 519.986 49.144C518.706 47.16 516.786 46.168 514.226 46.168C512.594 46.168 511.09 46.584 509.714 47.416C508.338 48.248 507.234 49.528 506.402 51.256C505.57 52.984 505.154 55.176 505.154 57.832V79H494.978V39.592H505.154V45.496C505.506 44.504 506.29 43.464 507.506 42.376C508.754 41.288 510.306 40.36 512.162 39.592C514.018 38.824 516.05 38.44 518.258 38.44C520.658 38.44 522.642 38.888 524.21 39.784C525.81 40.648 527.074 41.736 528.002 43.048C528.962 44.36 529.666 45.672 530.114 46.984C530.562 45.672 531.426 44.36 532.706 43.048C534.018 41.736 535.65 40.648 537.602 39.784C539.554 38.888 541.714 38.44 544.082 38.44Z" fill="#3D3D3D"/>
<circle cx="50.2989" cy="50.2993" r="13.7724" fill="#B51014"/>
<path fill-rule="evenodd" clip-rule="evenodd" d="M33.6971 71.407C35.5655 71.407 37.3377 71.8189 38.9279 72.5569C38.9667 72.5707 39.0058 72.5872 39.0453 72.6063C41.9369 74.0075 45.0938 74.8523 48.352 75.0665C54.4316 75.4662 60.4493 73.6427 65.2846 69.9356C70.1198 66.2285 73.4429 60.8904 74.6351 54.9154C75.8273 48.9404 74.8073 42.7357 71.7651 37.4568C68.7229 32.1779 63.8659 28.1845 58.0984 26.2203C52.3309 24.2561 46.0461 24.455 40.4143 26.7799C34.7826 29.1048 30.1877 33.3972 27.4853 38.8579C25.0728 43.7329 24.3154 49.2424 25.296 54.5573C25.3044 54.6031 25.3085 54.6479 25.3089 54.692C25.4205 55.3619 25.4785 56.0498 25.4785 56.7513C25.4785 63.6218 19.9089 69.1914 13.0384 69.1914C6.69328 69.1914 1.45766 64.4409 0.694124 58.3026C-1.04729 47.9624 0.501519 37.2915 5.18723 27.8231C10.566 16.9542 19.7116 8.41064 30.9209 3.78322C42.1303 -0.84419 54.6394 -1.24 66.1189 2.6695C77.5984 6.57899 87.2658 14.5273 93.321 25.0344C99.3761 35.5415 101.406 47.8911 99.0332 59.7836C96.6603 71.6762 90.046 82.301 80.4221 89.6796C70.7982 97.0582 58.8207 100.688 46.7199 99.8921C40.4902 99.4825 34.4464 97.9145 28.8782 95.3194C24.4008 93.4364 21.257 89.0089 21.257 83.8471C21.257 76.9766 26.8266 71.407 33.6971 71.407Z" fill="#F53C41"/>
<path fill-rule="evenodd" clip-rule="evenodd" d="M71.3695 95.2031C75.8894 93.3395 79.0708 88.89 79.0708 83.6974C79.0708 76.8269 73.5012 71.2573 66.6307 71.2573C64.7153 71.2573 62.901 71.6902 61.2803 72.4635C61.2739 72.4607 61.2675 72.4579 61.2611 72.4551C57.292 74.4457 52.8385 75.3617 48.3514 75.0667C45.0932 74.8525 41.9363 74.0077 39.0447 72.6065C39.006 72.5877 38.9677 72.5716 38.9297 72.5579C37.3389 71.8193 35.566 71.407 33.6967 71.407C26.8262 71.407 21.2566 76.9766 21.2566 83.8471C21.2566 89.0067 24.3977 93.4327 28.872 95.317C34.4418 97.9137 40.4875 99.4826 46.7193 99.8923C55.2587 100.454 63.7367 98.8114 71.3695 95.2031Z" fill="#B51014"/>
</svg>
