<svg width="100" height="100" viewBox="0 0 100 100" fill="none" xmlns="http://www.w3.org/2000/svg">
<circle cx="50.2989" cy="50.2993" r="13.7724" fill="#B51014"/>
<path fill-rule="evenodd" clip-rule="evenodd" d="M33.6971 71.407C35.5655 71.407 37.3377 71.8189 38.9279 72.5569C38.9667 72.5707 39.0058 72.5871 39.0453 72.6063C41.9369 74.0075 45.0938 74.8523 48.352 75.0665C54.4316 75.4662 60.4493 73.6427 65.2846 69.9356C70.1198 66.2285 73.4429 60.8904 74.6351 54.9154C75.8273 48.9404 74.8073 42.7357 71.7651 37.4568C68.7229 32.1779 63.8659 28.1845 58.0984 26.2203C52.3309 24.2561 46.0461 24.455 40.4143 26.7799C34.7826 29.1048 30.1877 33.3972 27.4853 38.8579C25.0728 43.7329 24.3154 49.2424 25.296 54.5573C25.3044 54.6031 25.3085 54.6479 25.3089 54.692C25.4205 55.3619 25.4785 56.0498 25.4785 56.7513C25.4785 63.6218 19.9089 69.1914 13.0384 69.1914C6.6933 69.1914 1.45769 64.441 0.694128 58.3026C-1.0473 47.9624 0.501504 37.2916 5.18723 27.8231C10.566 16.9542 19.7116 8.41064 30.9209 3.78323C42.1303 -0.844187 54.6394 -1.24 66.1189 2.66949C77.5984 6.579 87.2658 14.5273 93.321 25.0344C99.3761 35.5415 101.406 47.8911 99.0332 59.7836C96.6603 71.6762 90.046 82.301 80.4221 89.6796C70.7982 97.0582 58.8207 100.688 46.7199 99.8921C40.4901 99.4825 34.4464 97.9145 28.8782 95.3194C24.4008 93.4364 21.257 89.0089 21.257 83.8471C21.257 76.9766 26.8266 71.407 33.6971 71.407Z" fill="#F53C41"/>
<path fill-rule="evenodd" clip-rule="evenodd" d="M71.3695 95.2031C75.8894 93.3395 79.0708 88.89 79.0708 83.6974C79.0708 76.8269 73.5012 71.2573 66.6307 71.2573C64.7153 71.2573 62.901 71.6902 61.2803 72.4635C61.2739 72.4607 61.2675 72.4579 61.2611 72.4551C57.292 74.4457 52.8385 75.3617 48.3514 75.0667C45.0932 74.8525 41.9363 74.0077 39.0447 72.6065C39.006 72.5877 38.9677 72.5716 38.9297 72.5579C37.3389 71.8193 35.566 71.407 33.6967 71.407C26.8262 71.407 21.2566 76.9766 21.2566 83.8471C21.2566 89.0067 24.3977 93.4327 28.872 95.317C34.4417 97.9137 40.4875 99.4826 46.7193 99.8923C55.2587 100.454 63.7367 98.8114 71.3695 95.2031Z" fill="#B51014"/>
</svg>
