<svg width="31" height="30" viewBox="0 0 31 30" fill="none" xmlns="http://www.w3.org/2000/svg">
<g clip-path="url(#clip0_296_5303)">
<path d="M29.4541 27.9942H27.9338V21.2582C28.3998 20.8736 28.6651 20.3282 28.6651 19.7459V17.4799C28.6651 16.2454 27.5652 15.2409 26.213 15.2409H25.0657V9.73244C25.0657 8.81158 24.3167 8.0624 23.396 8.0624H23.2918V7.45965C24.3303 7.09555 25.0774 6.10578 25.0774 4.94416C25.0774 4.55416 24.964 3.89545 24.08 2.24973C23.6243 1.40141 23.1753 0.688027 23.1563 0.658027C22.9953 0.402852 22.7146 0.248047 22.4129 0.248047C22.1111 0.248047 21.8305 0.402852 21.6695 0.658027C21.6506 0.688027 21.2015 1.40146 20.7458 2.24973C19.8617 3.89545 19.7484 4.55416 19.7484 4.94416C19.7484 6.10572 20.4955 7.09555 21.534 7.45965V8.0624H21.4298C20.5091 8.0624 19.7601 8.81158 19.7601 9.73244V15.2409H17.9858V9.73244C17.9858 8.81158 17.2368 8.0624 16.3161 8.0624H16.2119V7.45965C17.2504 7.09555 17.9974 6.10578 17.9974 4.94416C17.9974 4.55416 17.8841 3.89545 17.0001 2.24973C16.5444 1.40141 16.0954 0.688027 16.0764 0.658086C15.9154 0.402852 15.6348 0.248047 15.333 0.248047C15.0312 0.248047 14.7506 0.402852 14.5896 0.658027C14.5707 0.688027 14.1216 1.40146 13.6659 2.24973C12.7818 3.89545 12.6685 4.55416 12.6685 4.94416C12.6685 6.10572 13.4156 7.09555 14.4541 7.45965V8.0624H14.3499C13.4292 8.0624 12.6802 8.81158 12.6802 9.73244V15.2409H10.9059V9.73244C10.9059 8.81158 10.1569 8.0624 9.23621 8.0624H9.13203V7.45965C10.1705 7.09555 10.9176 6.10578 10.9176 4.94416C10.9176 4.55416 10.8042 3.89545 9.92023 2.24973C9.46455 1.40141 9.01549 0.688027 8.9965 0.658027C8.83555 0.402852 8.55488 0.248047 8.25312 0.248047C7.95137 0.248047 7.67076 0.402852 7.50975 0.658027C7.49082 0.688027 7.04176 1.40146 6.58602 2.24973C5.70195 3.89545 5.58857 4.55416 5.58857 4.94416C5.58857 6.10572 6.33564 7.09555 7.37416 7.45965V8.0624H7.26998C6.3493 8.0624 5.60029 8.81158 5.60029 9.73244V15.2409H4.45291C3.10086 15.2409 2.00082 16.2454 2.00082 17.4799V19.7459C2.00082 20.3282 2.26619 20.8736 2.73213 21.2582V27.9942H1.21191C0.726523 27.9942 0.333008 28.3877 0.333008 28.8731C0.333008 29.3585 0.726523 29.752 1.21191 29.752H29.4541C29.9395 29.752 30.333 29.3585 30.333 28.8731C30.333 28.3877 29.9395 27.9942 29.4541 27.9942ZM21.5062 4.9448C21.5117 4.66408 21.8891 3.81652 22.4131 2.86016C22.9367 3.816 23.3139 4.6632 23.3196 4.94463C23.3193 5.44473 22.9127 5.85154 22.4129 5.85154C21.913 5.85154 21.5062 5.44449 21.5062 4.9448ZM21.5179 9.82022H23.3079V15.2359H21.5179V9.82022ZM14.4263 4.9448C14.4318 4.66408 14.8092 3.81658 15.3331 2.86021C15.8568 3.816 16.234 4.6632 16.2396 4.94463C16.2394 5.44473 15.8328 5.85154 15.333 5.85154C14.8331 5.85154 14.4263 5.44449 14.4263 4.9448ZM14.438 9.82022H16.228V15.2359H14.438V9.82022ZM7.34639 4.9448C7.35184 4.66408 7.7293 3.81652 8.25324 2.86016C8.77689 3.816 9.15412 4.6632 9.15975 4.94463C9.15951 5.44473 8.75287 5.85154 8.25307 5.85154C7.75314 5.85154 7.34639 5.44449 7.34639 4.9448ZM7.35811 9.82022H9.14809V15.2359H7.35811V9.82022ZM26.176 27.9942H4.48994V21.7658C4.6274 21.75 4.76445 21.7223 4.89939 21.6823L7.11811 21.0256C8.40031 20.6461 9.81242 20.6461 11.0945 21.0256L12.8458 21.544C13.6477 21.7814 14.4903 21.9001 15.3329 21.9001C16.1755 21.9001 17.0182 21.7814 17.8201 21.544L19.5713 21.0256C20.8534 20.6461 22.2656 20.6461 23.5477 21.0256L25.7664 21.6823C25.9013 21.7223 26.0384 21.75 26.1759 21.7658V27.9942H26.176ZM26.9073 19.7459C26.9073 19.8191 26.8481 19.8787 26.7986 19.9157C26.6877 19.9984 26.4895 20.0632 26.2655 19.9969L24.0468 19.3401C22.4429 18.8653 20.6763 18.8653 19.0724 19.3401L17.3212 19.8586C16.0391 20.238 14.6269 20.2381 13.3447 19.8586L11.5935 19.3401C10.7915 19.1026 9.94906 18.984 9.10631 18.984C8.26379 18.984 7.42098 19.1027 6.61918 19.3401L4.40041 19.9969C4.17646 20.0632 3.97818 19.9984 3.86738 19.9157C3.81775 19.8787 3.75863 19.8191 3.75863 19.7459V17.4799C3.75863 17.2523 4.04375 16.9987 4.45291 16.9987H26.2131C26.6222 16.9987 26.9074 17.2523 26.9074 17.4799V19.7459H26.9073Z" fill="#981B1E"/>
</g>
<defs>
<clipPath id="clip0_296_5303">
<rect width="30" height="30" fill="white" transform="translate(0.333008)"/>
</clipPath>
</defs>
</svg>
