<svg width="31" height="30" viewBox="0 0 31 30" fill="none" xmlns="http://www.w3.org/2000/svg">
<path d="M21.7657 13.7135C22.3123 13.7135 22.7553 13.2705 22.7553 12.7239C22.7553 12.1774 22.3123 11.7343 21.7657 11.7343C21.2192 11.7343 20.7761 12.1774 20.7761 12.7239C20.7761 13.2705 21.2192 13.7135 21.7657 13.7135Z" fill="#981B1E"/>
<path d="M24.0418 4.31223H22.7553V3.32262C22.7553 2.77606 22.3123 2.33301 21.7657 2.33301C21.2191 2.33301 20.7761 2.77606 20.7761 3.32262V4.31223H16.2734V3.32262C16.2734 2.77606 15.8303 2.33301 15.2838 2.33301C14.7372 2.33301 14.2942 2.77606 14.2942 3.32262V4.31223H9.84092V3.32262C9.84092 2.77606 9.39788 2.33301 8.85131 2.33301C8.30475 2.33301 7.86171 2.77606 7.86171 3.32262V4.31223H6.62469C4.44201 4.31223 2.66626 6.08798 2.66626 8.27066V23.7086C2.66626 25.8912 4.44201 27.667 6.62469 27.667H14.1952C14.7418 27.667 15.1848 27.2239 15.1848 26.6774C15.1848 26.1308 14.7418 25.6878 14.1952 25.6878H6.62469C5.53335 25.6878 4.64548 24.7999 4.64548 23.7086V8.27066C4.64548 7.17932 5.53335 6.29144 6.62469 6.29144H7.86171V7.28105C7.86171 7.82761 8.30475 8.27066 8.85131 8.27066C9.39788 8.27066 9.84092 7.82761 9.84092 7.28105V6.29144H14.2942V7.28105C14.2942 7.82761 14.7372 8.27066 15.2838 8.27066C15.8303 8.27066 16.2734 7.82761 16.2734 7.28105V6.29144H20.7761V7.28105C20.7761 7.82761 21.2191 8.27066 21.7657 8.27066C22.3123 8.27066 22.7553 7.82761 22.7553 7.28105V6.29144H24.0418C25.1332 6.29144 26.021 7.17932 26.021 8.27066V13.9114C26.021 14.458 26.4641 14.901 27.0106 14.901C27.5572 14.901 28.0002 14.458 28.0002 13.9114V8.27066C28.0002 6.08798 26.2245 4.31223 24.0418 4.31223Z" fill="#981B1E"/>
<path d="M22.013 15.6927C18.7117 15.6927 16.0259 18.3785 16.0259 21.6799C16.0259 24.9812 18.7117 27.667 22.013 27.667C25.3143 27.667 28.0001 24.9812 28.0001 21.6799C28.0001 18.3785 25.3143 15.6927 22.013 15.6927ZM22.013 25.6878C19.8031 25.6878 18.0051 23.8899 18.0051 21.6799C18.0051 19.4699 19.8031 17.672 22.013 17.672C24.223 17.672 26.0209 19.4699 26.0209 21.6799C26.0209 23.8899 24.223 25.6878 22.013 25.6878Z" fill="#981B1E"/>
<path d="M23.448 20.6903H23.0027V19.6512C23.0027 19.1046 22.5596 18.6616 22.013 18.6616C21.4665 18.6616 21.0234 19.1046 21.0234 19.6512V21.6799C21.0234 22.2264 21.4665 22.6695 22.013 22.6695H23.448C23.9945 22.6695 24.4376 22.2264 24.4376 21.6799C24.4376 21.1333 23.9945 20.6903 23.448 20.6903Z" fill="#981B1E"/>
<path d="M17.4608 13.7135C18.0073 13.7135 18.4504 13.2705 18.4504 12.7239C18.4504 12.1774 18.0073 11.7343 17.4608 11.7343C16.9143 11.7343 16.4712 12.1774 16.4712 12.7239C16.4712 13.2705 16.9143 13.7135 17.4608 13.7135Z" fill="#981B1E"/>
<path d="M13.1561 18.0183C13.7027 18.0183 14.1457 17.5752 14.1457 17.0287C14.1457 16.4821 13.7027 16.0391 13.1561 16.0391C12.6096 16.0391 12.1665 16.4821 12.1665 17.0287C12.1665 17.5752 12.6096 18.0183 13.1561 18.0183Z" fill="#981B1E"/>
<path d="M8.85143 13.7135C9.39797 13.7135 9.84103 13.2705 9.84103 12.7239C9.84103 12.1774 9.39797 11.7343 8.85143 11.7343C8.30488 11.7343 7.86182 12.1774 7.86182 12.7239C7.86182 13.2705 8.30488 13.7135 8.85143 13.7135Z" fill="#981B1E"/>
<path d="M8.85143 18.0183C9.39797 18.0183 9.84103 17.5752 9.84103 17.0287C9.84103 16.4821 9.39797 16.0391 8.85143 16.0391C8.30488 16.0391 7.86182 16.4821 7.86182 17.0287C7.86182 17.5752 8.30488 18.0183 8.85143 18.0183Z" fill="#981B1E"/>
<path d="M8.85143 22.3231C9.39797 22.3231 9.84103 21.88 9.84103 21.3335C9.84103 20.7869 9.39797 20.3439 8.85143 20.3439C8.30488 20.3439 7.86182 20.7869 7.86182 21.3335C7.86182 21.88 8.30488 22.3231 8.85143 22.3231Z" fill="#981B1E"/>
<path d="M13.1561 22.3231C13.7027 22.3231 14.1457 21.88 14.1457 21.3335C14.1457 20.7869 13.7027 20.3439 13.1561 20.3439C12.6096 20.3439 12.1665 20.7869 12.1665 21.3335C12.1665 21.88 12.6096 22.3231 13.1561 22.3231Z" fill="#981B1E"/>
<path d="M13.1561 13.7135C13.7027 13.7135 14.1457 13.2705 14.1457 12.7239C14.1457 12.1774 13.7027 11.7343 13.1561 11.7343C12.6096 11.7343 12.1665 12.1774 12.1665 12.7239C12.1665 13.2705 12.6096 13.7135 13.1561 13.7135Z" fill="#981B1E"/>
</svg>
