<svg width="31" height="30" viewBox="0 0 31 30" fill="none" xmlns="http://www.w3.org/2000/svg">
<path d="M6.38542 16.2309L9.86636 12.75C11.1979 13.7473 12.8579 14.2032 14.512 14.0258C16.1662 13.8484 17.6918 13.051 18.7816 11.794C19.8714 10.537 20.4446 8.91385 20.3858 7.25124C20.327 5.58863 19.6405 4.01004 18.4645 2.83325C17.2885 1.65645 15.7104 0.968838 14.0479 0.908827C12.3853 0.848815 10.7617 1.42086 9.50399 2.50981C8.24624 3.59876 7.44772 5.12375 7.26917 6.77779C7.09062 8.43183 7.54529 10.0921 8.54167 11.4244L5.0598 14.9062L3.73417 13.5797C3.55826 13.4039 3.31972 13.3052 3.07103 13.3053C2.82234 13.3054 2.58387 13.4042 2.40808 13.5802C2.23229 13.7561 2.13358 13.9946 2.13367 14.2433C2.13376 14.492 2.23263 14.7305 2.40855 14.9062L3.73417 16.2328L1.87886 18.0872C1.78932 18.1737 1.7179 18.2771 1.66876 18.3915C1.61963 18.5059 1.59377 18.6289 1.59269 18.7534C1.59161 18.8779 1.61533 19.0013 1.66246 19.1165C1.7096 19.2317 1.77921 19.3364 1.86724 19.4244C1.95526 19.5125 2.05994 19.5821 2.17515 19.6292C2.29037 19.6763 2.41382 19.7001 2.5383 19.699C2.66278 19.6979 2.7858 19.672 2.90018 19.6229C3.01455 19.5738 3.118 19.5024 3.20448 19.4128L5.0598 17.5575L6.38542 18.8831C6.4719 18.9727 6.57535 19.0441 6.68973 19.0932C6.80411 19.1424 6.92713 19.1682 7.05161 19.1693C7.17609 19.1704 7.29954 19.1467 7.41475 19.0995C7.52997 19.0524 7.63464 18.9828 7.72267 18.8947C7.81069 18.8067 7.8803 18.702 7.92744 18.5868C7.97458 18.4716 7.9983 18.3482 7.99722 18.2237C7.99614 18.0992 7.97027 17.9762 7.92114 17.8618C7.87201 17.7474 7.80059 17.644 7.71105 17.5575L6.38542 16.2309ZM13.7917 2.8125C14.7188 2.8125 15.6251 3.08742 16.3959 3.60249C17.1668 4.11756 17.7676 4.84964 18.1224 5.70617C18.4771 6.5627 18.57 7.5052 18.3891 8.41449C18.2082 9.32377 17.7618 10.159 17.1062 10.8146C16.4507 11.4701 15.6154 11.9166 14.7062 12.0974C13.7969 12.2783 12.8544 12.1855 11.9978 11.8307C11.1413 11.4759 10.4092 10.8751 9.89416 10.1042C9.37909 9.33338 9.10417 8.4271 9.10417 7.5C9.10417 6.2568 9.59803 5.06451 10.4771 4.18544C11.3562 3.30636 12.5485 2.8125 13.7917 2.8125Z" fill="#981B1E"/>
<path d="M28.7916 10.3125H24.1041C23.8555 10.3125 23.617 10.4113 23.4412 10.5871C23.2654 10.7629 23.1666 11.0014 23.1666 11.25C23.1666 11.4986 23.2654 11.7371 23.4412 11.9129C23.617 12.0887 23.8555 12.1875 24.1041 12.1875H26.5285L21.466 17.25C20.1341 16.2532 18.474 15.7981 16.8199 15.9761C15.1658 16.1541 13.6406 16.9521 12.5513 18.2095C11.4619 19.4669 10.8893 21.0902 10.9488 22.7528C11.0082 24.4153 11.6953 25.9936 12.8716 27.17C14.048 28.3464 15.6263 29.0334 17.2889 29.0928C18.9514 29.1523 20.5748 28.5797 21.8321 27.4904C23.0895 26.401 23.8875 24.8758 24.0656 23.2217C24.2436 21.5677 23.7884 19.9076 22.7916 18.5756L27.8541 13.5131V15.9375C27.8541 16.1861 27.9529 16.4246 28.1287 16.6004C28.3045 16.7762 28.543 16.875 28.7916 16.875C29.0403 16.875 29.2787 16.7762 29.4545 16.6004C29.6304 16.4246 29.7291 16.1861 29.7291 15.9375V11.25C29.7291 11.0014 29.6304 10.7629 29.4545 10.5871C29.2787 10.4113 29.0403 10.3125 28.7916 10.3125ZM17.5416 27.1875C16.6145 27.1875 15.7083 26.9126 14.9374 26.3975C14.1665 25.8824 13.5657 25.1504 13.2109 24.2938C12.8562 23.4373 12.7633 22.4948 12.9442 21.5855C13.1251 20.6762 13.5715 19.841 14.2271 19.1854C14.8826 18.5299 15.7179 18.0834 16.6271 17.9026C17.5364 17.7217 18.4789 17.8145 19.3355 18.1693C20.192 18.5241 20.9241 19.1249 21.4391 19.8958C21.9542 20.6666 22.2291 21.5729 22.2291 22.5C22.2291 23.1156 22.1079 23.7251 21.8723 24.2938C21.6368 24.8625 21.2915 25.3793 20.8562 25.8146C20.4209 26.2498 19.9042 26.5951 19.3355 26.8307C18.7667 27.0663 18.1572 27.1875 17.5416 27.1875Z" fill="#981B1E"/>
</svg>
