<svg width="30" height="30" viewBox="0 0 30 30" fill="none" xmlns="http://www.w3.org/2000/svg">
<g clip-path="url(#clip0_30_3752)">
<path fill-rule="evenodd" clip-rule="evenodd" d="M27.3286 10.1054C27.2056 10.1054 27.1001 10.0703 26.9947 10.0176L25.1845 9.0158L23.3743 10.0176C23.1458 10.1406 22.847 10.123 22.6186 9.96483C22.4077 9.80666 22.3022 9.52546 22.355 9.26184L22.7416 7.24075L21.2302 5.83478C21.0369 5.64146 20.9666 5.36026 21.0544 5.09664C21.1247 4.8506 21.3532 4.65727 21.6344 4.62213L23.6731 4.35851L24.5518 2.49559C24.6572 2.24954 24.9033 2.09137 25.1845 2.09137C25.4481 2.09137 25.6942 2.24954 25.8172 2.49559L26.6959 4.35851L28.7346 4.62213C29.0158 4.65727 29.2267 4.8506 29.3145 5.09664C29.4024 5.36026 29.3321 5.64146 29.1388 5.83478L27.6274 7.24075L28.014 9.26184C28.0667 9.52546 27.9613 9.80666 27.7328 9.96483C27.6098 10.0527 27.4692 10.1054 27.3286 10.1054ZM6.85408 27.891H2.75918C2.37253 27.891 2.05619 27.5747 2.05619 27.188V22.4253H0.702938C0.439317 22.4253 0.193272 22.2847 0.0702487 22.0386C-0.0351994 21.7926 -0.0176247 21.5114 0.140548 21.3005L4.25303 15.8348C4.37605 15.659 4.58694 15.5536 4.81542 15.5536C5.02631 15.5536 5.23721 15.659 5.37781 15.8348L9.41999 21.2478C9.54301 21.3708 9.61331 21.5466 9.61331 21.7223C9.61331 22.1089 9.29696 22.4253 8.91032 22.4253H7.55707V27.188C7.55707 27.5747 7.24072 27.891 6.85408 27.891ZM3.46216 26.485H6.15109V21.7223C6.15109 21.3357 6.46744 21.0193 6.85408 21.0193H7.50434L4.81542 17.4341L2.10891 21.0193H2.75918C3.14582 21.0193 3.46216 21.3357 3.46216 21.7223V26.485ZM17.0474 27.891H12.9349C12.5483 27.891 12.2495 27.5747 12.2495 27.188V20.369H10.8963C10.6326 20.369 10.3866 20.2109 10.2636 19.9824C10.1405 19.7364 10.1757 19.4552 10.3339 19.2443L14.4288 13.7785C14.5694 13.6028 14.7803 13.4973 14.9912 13.4973C15.2196 13.4973 15.4305 13.6028 15.5536 13.7785L19.6133 19.1915C19.7363 19.3146 19.8066 19.4727 19.8066 19.6661C19.8066 20.0527 19.4903 20.369 19.1036 20.369H17.7504V27.188C17.7504 27.5747 17.434 27.891 17.0474 27.891ZM13.6379 26.485H16.3444V19.6661C16.3444 19.2794 16.6608 18.9631 17.0474 18.9631H17.6977L14.9912 15.3603L12.3022 18.9631H12.9349C13.3391 18.9631 13.6379 19.2794 13.6379 19.6661V26.485ZM27.2407 27.891H23.1282C22.7416 27.891 22.4253 27.5747 22.4253 27.188V18.3128H21.072C20.8084 18.3128 20.5623 18.1546 20.4569 17.9262C20.3339 17.6801 20.3514 17.3989 20.5096 17.188L24.6221 11.7223C24.7451 11.5466 24.956 11.4411 25.1845 11.4411C25.3954 11.4411 25.6063 11.5466 25.7469 11.7223L29.8066 17.1353C29.9121 17.2583 30 17.4165 30 17.6098C30 17.9965 29.6836 18.3128 29.297 18.3128C29.2794 18.3128 29.2794 18.3128 29.2794 18.3128H27.9437V27.188C27.9437 27.5747 27.6274 27.891 27.2407 27.891ZM23.8312 26.485H26.5377V17.6098C26.5377 17.2232 26.8365 16.9068 27.2407 16.9068H27.8734L25.1845 13.304L22.478 16.9068H23.1282C23.5149 16.9068 23.8312 17.2232 23.8312 17.6098V26.485ZM2.6713 15.0439C2.51313 15.0439 2.37253 14.9912 2.24951 14.9033C2.03861 14.7451 1.91559 14.464 1.96832 14.2003L2.35496 12.1792L0.86111 10.7733C0.667788 10.5799 0.579915 10.2988 0.667788 10.0351C0.755662 9.78908 0.984133 9.59576 1.24775 9.56061L3.30399 9.29699L4.16515 7.43408C4.28817 7.18803 4.53422 7.02986 4.81542 7.02986C5.07904 7.02986 5.32508 7.18803 5.4481 7.43408L6.32684 9.29699L8.3655 9.56061C8.62912 9.59576 8.85759 9.78908 8.94547 10.0351C9.03334 10.2988 8.94547 10.5799 8.75215 10.7733L7.2583 12.1792L7.64494 14.2003C7.69767 14.464 7.57464 14.7451 7.36375 14.9033C7.13527 15.0615 6.85408 15.0791 6.60803 14.956L4.81542 13.9543L3.00522 14.956C2.89977 15.0088 2.77675 15.0439 2.6713 15.0439ZM2.91735 10.7733L3.60276 11.4235C3.77851 11.5817 3.86638 11.8277 3.81366 12.0562L3.63791 13.0053L4.46392 12.5483C4.67482 12.4253 4.93844 12.4253 5.14933 12.5483L5.97535 13.0053L5.7996 12.0562C5.74687 11.8277 5.83475 11.5817 6.01049 11.4235L6.69591 10.7733L5.76445 10.6502C5.5184 10.6151 5.30751 10.4745 5.21963 10.246L4.81542 9.38487L4.4112 10.246C4.30575 10.4745 4.09485 10.6151 3.84881 10.6502L2.91735 10.7733ZM12.8471 12.7416C12.7065 12.7416 12.5659 12.6889 12.4428 12.601C12.2144 12.4429 12.1089 12.1617 12.1616 11.898L12.5483 9.87696L11.0544 8.47098C10.8435 8.27766 10.7732 7.99647 10.8611 7.73285C10.949 7.4868 11.1775 7.29348 11.4411 7.25833L13.4797 7.01228L14.3585 5.13179C14.4815 4.88575 14.7275 4.72757 14.9912 4.72757C15.2724 4.72757 15.5184 4.88575 15.6239 5.13179L16.5026 7.01228L18.5413 7.25833C18.8224 7.29348 19.0509 7.4868 19.1388 7.73285C19.2091 7.99647 19.1388 8.27766 18.9455 8.47098L17.434 9.87696L17.8207 11.898C17.8734 12.1617 17.768 12.4429 17.5571 12.601C17.3286 12.7592 17.0298 12.7768 16.8014 12.6538L14.9912 11.652L13.1985 12.6538C13.0931 12.7065 12.9701 12.7416 12.8471 12.7416ZM13.0931 8.47098L13.7961 9.12125C13.9718 9.27942 14.0421 9.52546 14.007 9.77151L13.8312 10.703L14.6572 10.246C14.8681 10.123 15.1142 10.123 15.3251 10.246L16.1687 10.703L15.9929 9.77151C15.9402 9.52546 16.0281 9.27942 16.2038 9.12125L16.8892 8.47098L15.9402 8.34796C15.7117 8.31281 15.5008 8.17221 15.3954 7.94374L14.9912 7.08258L14.5869 7.94374C14.4815 8.17221 14.2882 8.31281 14.0421 8.34796L13.0931 8.47098ZM25.1845 7.52195C25.3075 7.52195 25.413 7.53952 25.5184 7.60982L26.362 8.06676L26.1687 7.13531C26.1335 6.88926 26.2038 6.64321 26.3796 6.48504L27.0826 5.83478L26.1335 5.71176C25.8875 5.67661 25.6942 5.53601 25.5887 5.30754L25.1845 4.44638L24.7803 5.30754C24.6748 5.53601 24.4639 5.67661 24.2355 5.71176L23.2864 5.83478L23.9718 6.48504C24.1476 6.64321 24.2355 6.88926 24.1827 7.13531L24.007 8.06676L24.8506 7.60982C24.956 7.53952 25.0615 7.52195 25.1845 7.52195Z" fill="#981B1E"/>
</g>
<defs>
<clipPath id="clip0_30_3752">
<rect width="30" height="30" fill="white"/>
</clipPath>
</defs>
</svg>
