<svg width="28" height="30" viewBox="0 0 28 30" fill="none" xmlns="http://www.w3.org/2000/svg">
<path d="M17.6165 20.3525C17.3887 20.9583 16.7127 21.2648 16.1071 21.0371C15.173 20.6859 14.1881 20.5078 13.1797 20.5078H11.4219C6.83404 20.5078 3.10156 24.2403 3.10156 28.8281C3.10156 29.4754 2.57691 30 1.92969 30C1.28246 30 0.757812 29.4754 0.757812 28.8281C0.757812 22.9479 5.5417 18.1641 11.4219 18.1641H13.1797C14.4707 18.1641 15.7332 18.3926 16.9319 18.8432C17.5377 19.071 17.8442 19.7467 17.6165 20.3525ZM20.0938 7.91016C20.0938 12.2718 16.5453 15.8203 12.1836 15.8203C7.82193 15.8203 4.27344 12.2718 4.27344 7.91016C4.27344 3.5485 7.82193 0 12.1836 0C16.5453 0 20.0938 3.5485 20.0938 7.91016ZM17.75 7.91016C17.75 4.84084 15.2529 2.34375 12.1836 2.34375C9.11428 2.34375 6.61719 4.84084 6.61719 7.91016C6.61719 10.9795 9.11428 13.4766 12.1836 13.4766C15.2529 13.4766 17.75 10.9795 17.75 7.91016ZM27.2422 24.9804C27.2422 23.1496 25.614 21.6601 23.6127 21.6601C22.7619 21.6602 22.1445 21.2494 22.1445 20.6836C22.1445 20.1451 22.5782 19.707 23.1113 19.707C23.6488 19.707 24.3489 19.7656 25.4665 20.2003C26.0696 20.4348 26.7488 20.136 26.9834 19.5328C27.218 18.9296 26.9192 18.2504 26.316 18.0159C25.7342 17.7896 25.227 17.6413 24.7812 17.5436V16.6406C24.7812 15.9934 24.2566 15.4688 23.6094 15.4688C22.9621 15.4688 22.4375 15.9934 22.4375 16.6406V17.4326C20.9341 17.7456 19.8008 19.0843 19.8008 20.6836C19.8008 22.5765 21.4395 24.0039 23.6127 24.0039C24.3097 24.0039 24.8984 24.4511 24.8984 24.9805C24.8984 25.5007 24.4147 25.9571 23.8633 25.9571C23.433 25.9571 22.3535 25.7993 21.2884 25.3759C20.687 25.137 20.0056 25.4306 19.7665 26.032C19.5274 26.6334 19.8212 27.3148 20.4226 27.5539C21.1012 27.8237 21.8092 28.0161 22.4375 28.1381V28.8281C22.4375 29.4754 22.9621 30 23.6094 30C24.2566 30 24.7812 29.4754 24.7812 28.8281V28.1737C25.3171 28.0229 25.8123 27.7412 26.2249 27.3434C26.8809 26.7113 27.2422 25.8721 27.2422 24.9804Z" fill="#981B1E"/>
</svg>
