<svg width="756" height="303" viewBox="0 0 756 303" fill="none" xmlns="http://www.w3.org/2000/svg">
<path d="M82.6593 116.393C82.6593 127 80.9049 136.131 77.3959 143.787C73.887 151.363 68.7432 157.224 61.9646 161.371C55.186 165.438 46.8522 167.472 36.9634 167.472C29.5468 167.472 23.2068 166.475 17.9434 164.481C12.68 162.488 8.53309 160.294 5.50265 157.902C2.55195 155.43 0.717737 153.596 0 152.399L10.2876 130.748C11.2445 132.103 12.6401 133.778 14.4744 135.772C16.3883 137.686 18.9004 139.4 22.0106 140.916C25.2005 142.351 29.1082 143.069 33.7336 143.069C39.0768 143.069 43.5028 141.873 47.0118 139.48C50.5207 137.008 53.1524 133.499 54.9069 128.953C56.6613 124.408 57.5386 118.945 57.5386 112.565V6.69887H82.6593V116.393Z" fill="#B51014"/>
<path d="M229.883 164.601V0H255.482V83.4967C256.041 81.1042 257.915 78.3529 261.105 75.2427C264.295 72.1325 268.561 69.4211 273.904 67.1084C279.247 64.7159 285.348 63.5197 292.207 63.5197C301.457 63.5197 309.632 65.7526 316.729 70.2186C323.827 74.6047 329.369 80.7055 333.357 88.5209C337.424 96.3362 339.458 105.348 339.458 115.556C339.458 125.763 337.424 134.775 333.357 142.59C329.369 150.406 323.827 156.506 316.729 160.893C309.632 165.279 301.457 167.472 292.207 167.472C285.907 167.472 280.125 166.316 274.861 164.003C269.678 161.61 265.371 158.779 261.942 155.51C258.513 152.24 256.24 149.209 255.124 146.418V164.601H229.883ZM314.217 115.556C314.217 109.255 312.901 103.753 310.27 99.0477C307.638 94.3425 304.169 90.7139 299.863 88.162C295.556 85.5303 290.811 84.2144 285.627 84.2144C280.045 84.2144 274.981 85.5702 270.435 88.2816C265.89 90.9133 262.261 94.5817 259.55 99.2869C256.838 103.912 255.482 109.335 255.482 115.556C255.482 121.776 256.838 127.239 259.55 131.944C262.261 136.569 265.89 140.198 270.435 142.83C274.981 145.461 280.045 146.777 285.627 146.777C290.811 146.777 295.556 145.501 299.863 142.949C304.169 140.397 307.638 136.769 310.27 132.064C312.901 127.358 314.217 121.856 314.217 115.556Z" fill="#B51014"/>
<path d="M5.1449 200.967H32.5385L62.0853 275.731L91.6322 200.967H118.906L77.1578 299.177H47.1325L5.1449 200.967Z" fill="#3D3D3D"/>
<path d="M215.472 256.113C215.631 261.297 216.867 265.962 219.18 270.109C221.493 274.256 224.882 277.525 229.348 279.918C233.894 282.231 239.436 283.387 245.975 283.387C251.638 283.387 256.502 282.629 260.569 281.114C264.716 279.519 268.146 277.645 270.857 275.492C273.568 273.259 275.562 271.185 276.838 269.271L288.202 284.703C285.73 288.052 282.62 291.043 278.872 293.674C275.123 296.306 270.458 298.34 264.876 299.775C259.373 301.29 252.555 302.048 244.42 302.048C233.734 302.048 224.443 299.855 216.548 295.469C208.653 291.083 202.512 284.902 198.126 276.927C193.82 268.952 191.667 259.622 191.667 248.936C191.667 239.366 193.66 230.753 197.648 223.097C201.635 215.361 207.417 209.261 214.993 204.795C222.649 200.329 231.82 198.096 242.506 198.096C252.475 198.096 261.128 200.09 268.464 204.077C275.801 208.064 281.464 213.806 285.451 221.303C289.518 228.719 291.552 237.691 291.552 248.218C291.552 248.856 291.512 250.172 291.432 252.165C291.432 254.159 291.352 255.475 291.193 256.113H215.472ZM267.627 237.452C267.547 234.9 266.67 231.989 264.995 228.719C263.4 225.45 260.809 222.619 257.22 220.226C253.631 217.754 248.846 216.518 242.865 216.518C236.725 216.518 231.74 217.714 227.912 220.106C224.084 222.419 221.253 225.21 219.419 228.48C217.585 231.67 216.508 234.661 216.189 237.452H267.627Z" fill="#3D3D3D"/>
<path d="M361.752 281.353C367.414 281.353 371.999 280.436 375.508 278.602C379.097 276.688 381.41 275.292 382.446 274.415L394.528 292.359C393.571 293.156 391.577 294.352 388.547 295.947C385.517 297.463 381.649 298.858 376.944 300.134C372.318 301.41 367.055 302.048 361.153 302.048C351.424 302.048 342.572 300.014 334.597 295.947C326.702 291.8 320.362 285.859 315.577 278.123C310.872 270.308 308.519 260.938 308.519 250.012C308.519 239.007 310.872 229.636 315.577 221.901C320.362 214.165 326.702 208.264 334.597 204.197C342.572 200.129 351.424 198.096 361.153 198.096C366.975 198.096 372.159 198.774 376.704 200.129C381.33 201.405 385.158 202.881 388.188 204.555C391.219 206.23 393.252 207.546 394.289 208.503L381.968 226.446C381.41 225.888 380.253 225.011 378.499 223.815C376.824 222.539 374.591 221.382 371.8 220.346C369.009 219.309 365.659 218.791 361.752 218.791C356.967 218.791 352.381 220.067 347.995 222.619C343.609 225.17 340.02 228.799 337.229 233.504C334.438 238.13 333.042 243.632 333.042 250.012C333.042 256.392 334.438 261.935 337.229 266.64C340.02 271.345 343.609 274.973 347.995 277.525C352.381 280.077 356.967 281.353 361.752 281.353Z" fill="#3D3D3D"/>
<path d="M439.379 299.177H413.66V134.576H439.379V299.177Z" fill="#3D3D3D"/>
<path d="M545.266 299.177V280.994C544.628 282.908 542.794 285.54 539.763 288.89C536.813 292.239 532.745 295.269 527.562 297.981C522.458 300.692 516.397 302.048 509.379 302.048C500.208 302.048 491.954 299.855 484.617 295.469C477.28 291.083 471.499 284.982 467.272 277.167C463.045 269.351 460.932 260.34 460.932 250.132C460.932 239.924 463.045 230.912 467.272 223.097C471.499 215.282 477.28 209.181 484.617 204.795C491.954 200.329 500.208 198.096 509.379 198.096C516.237 198.096 522.179 199.292 527.203 201.685C532.227 204.077 536.254 206.828 539.285 209.939C542.395 213.049 544.309 215.76 545.027 218.073V200.967H570.387V299.177H545.266ZM486.172 250.132C486.172 256.432 487.568 261.935 490.359 266.64C493.15 271.345 496.779 274.973 501.245 277.525C505.79 280.077 510.655 281.353 515.839 281.353C521.421 281.353 526.366 280.037 530.672 277.406C535.058 274.774 538.487 271.145 540.96 266.52C543.511 261.815 544.787 256.352 544.787 250.132C544.787 243.911 543.511 238.488 540.96 233.863C538.487 229.158 535.058 225.489 530.672 222.858C526.366 220.146 521.421 218.791 515.839 218.791C510.655 218.791 505.79 220.106 501.245 222.738C496.779 225.29 493.15 228.919 490.359 233.624C487.568 238.329 486.172 243.832 486.172 250.132Z" fill="#3D3D3D"/>
<path d="M719.799 198.096C727.136 198.096 733.436 199.651 738.7 202.761C744.043 205.871 748.15 210.656 751.021 217.116C753.972 223.576 755.447 231.829 755.447 241.878V299.177H730.207V246.423C730.207 236.933 728.851 229.716 726.139 224.772C723.508 219.827 718.523 217.355 711.186 217.355C707.199 217.355 703.451 218.432 699.942 220.585C696.433 222.738 693.602 225.968 691.449 230.274C689.375 234.501 688.339 239.884 688.339 246.423V299.177H664.653V246.423C664.653 236.933 663.018 229.716 659.749 224.772C656.559 219.827 651.774 217.355 645.394 217.355C641.327 217.355 637.579 218.392 634.149 220.465C630.72 222.539 627.969 225.729 625.895 230.035C623.822 234.342 622.785 239.804 622.785 246.423V299.177H597.425V200.967H622.785V215.68C623.662 213.208 625.616 210.616 628.647 207.905C631.757 205.193 635.625 202.881 640.25 200.967C644.876 199.053 649.94 198.096 655.442 198.096C661.423 198.096 666.368 199.212 670.276 201.445C674.263 203.599 677.413 206.31 679.726 209.58C682.118 212.849 683.873 216.119 684.989 219.389C686.106 216.119 688.259 212.849 691.449 209.58C694.718 206.31 698.786 203.599 703.65 201.445C708.515 199.212 713.898 198.096 719.799 198.096Z" fill="#3D3D3D"/>
<path d="M163.404 194.507L171.091 179.554H138.694L146.381 194.507H163.404Z" fill="#B51014"/>
<path d="M163.441 201.983H146.344L133.795 275.269C133.511 276.914 133.941 278.606 134.974 279.893L150.571 299.562C151.635 300.899 153.221 301.671 154.895 301.669C156.57 301.666 158.154 300.887 159.213 299.548L174.811 279.857C175.843 278.585 176.275 276.903 175.99 275.27L163.441 201.983Z" fill="#B51014"/>
<circle cx="154.815" cy="115.814" r="14.461" fill="#B51014"/>
<path fill-rule="evenodd" clip-rule="evenodd" d="M137.382 137.977C139.345 137.977 141.206 138.41 142.876 139.185C142.916 139.2 142.957 139.217 142.998 139.237C146.034 140.708 149.348 141.595 152.77 141.82C159.153 142.24 165.472 140.325 170.549 136.432C175.626 132.54 179.115 126.935 180.367 120.661C181.619 114.387 180.548 107.873 177.353 102.33C174.159 96.7868 169.059 92.5937 163.003 90.5313C156.947 88.4689 150.348 88.6777 144.435 91.1189C138.522 93.56 133.697 98.0671 130.86 103.801C128.326 108.92 127.531 114.704 128.561 120.285C128.57 120.336 128.574 120.386 128.574 120.435C128.691 121.135 128.751 121.855 128.751 122.589C128.751 129.803 122.903 135.651 115.689 135.651C109.017 135.651 103.513 130.648 102.724 124.189C100.903 113.341 102.531 102.147 107.447 92.2143C113.094 80.802 122.697 71.8312 134.467 66.9724C146.237 62.1136 159.371 61.698 171.425 65.803C183.478 69.9079 193.629 78.2537 199.987 89.2861C206.345 100.319 208.476 113.286 205.985 125.773C203.493 138.26 196.548 149.416 186.443 157.164C176.338 164.911 163.762 168.722 151.056 167.887C144.513 167.457 138.166 165.809 132.318 163.083C127.619 161.105 124.32 156.458 124.32 151.039C124.32 143.825 130.168 137.977 137.382 137.977Z" fill="#F53C41"/>
<path fill-rule="evenodd" clip-rule="evenodd" d="M176.934 162.964C181.681 161.008 185.022 156.335 185.022 150.882C185.022 143.668 179.174 137.82 171.96 137.82C169.949 137.82 168.044 138.275 166.342 139.087C166.335 139.084 166.328 139.081 166.322 139.078C162.154 141.168 157.478 142.13 152.766 141.82C149.345 141.595 146.031 140.708 142.994 139.237C142.955 139.218 142.916 139.201 142.878 139.187C141.207 138.411 139.344 137.977 137.38 137.977C130.166 137.977 124.318 143.825 124.318 151.039C124.318 156.453 127.611 161.098 132.304 163.079C138.155 165.808 144.506 167.457 151.053 167.887C160.019 168.476 168.92 166.752 176.934 162.964Z" fill="#B51014"/>
</svg>
