<svg width="24" height="24" viewBox="0 0 24 24" fill="none" xmlns="http://www.w3.org/2000/svg">
<path fill-rule="evenodd" clip-rule="evenodd" d="M19.7 23H4.3C3.6928 23 3.2 22.5072 3.2 21.9C3.2 18.1446 3.2 5.8554 3.2 2.1C3.2 1.4928 3.6928 1 4.3 1H19.7C20.3072 1 20.8 1.4928 20.8 2.1V21.9C20.8 22.5072 20.3072 23 19.7 23ZM7.6 3.2H5.4V20.8H18.6V3.2H16.4V5.4C16.4 6.0072 15.9072 6.5 15.3 6.5C13.6093 6.5 10.3907 6.5 8.7 6.5C8.0928 6.5 7.6 6.0072 7.6 5.4C7.6 4.4397 7.6 3.2 7.6 3.2ZM14.2 3.2H9.8V4.3H14.2V3.2Z" fill="#696974"/>
<path fill-rule="evenodd" clip-rule="evenodd" d="M15.346 9.8C15.9538 9.8 16.4463 10.2928 16.4463 10.9C16.4463 11.5072 15.9538 12 15.346 12H8.74334C8.13687 12 7.64309 11.5072 7.64309 10.9C7.64309 10.2928 8.13687 9.8 8.74334 9.8H15.346Z" fill="#696974"/>
<path fill-rule="evenodd" clip-rule="evenodd" d="M13.1456 14.2C13.752 14.2 14.2458 14.6928 14.2458 15.3C14.2458 15.9072 13.752 16.4 13.1456 16.4H8.74334C8.13687 16.4 7.64309 15.9072 7.64309 15.3C7.64309 14.6928 8.13687 14.2 8.74334 14.2H13.1456Z" fill="#696974"/>
</svg>
