<svg width="19" height="15" viewBox="0 0 19 15" fill="none" xmlns="http://www.w3.org/2000/svg">
<path d="M12.8767 0.0963813V0.0931396H13.7207L14.029 0.154732C14.2346 0.194718 14.4213 0.24712 14.589 0.311953C14.7567 0.376787 14.9191 0.452431 15.0759 0.538871C15.2328 0.62531 15.3751 0.713387 15.5028 0.803068C15.6294 0.891679 15.743 0.985688 15.8437 1.08509C15.9432 1.18559 16.0985 1.21152 16.3095 1.16289C16.5205 1.11427 16.7477 1.04673 16.9912 0.960289C17.2346 0.87385 17.4754 0.7766 17.7135 0.668538C17.9515 0.560477 18.0965 0.491866 18.1485 0.462691C18.1993 0.432446 18.2264 0.416238 18.2296 0.414066L18.2328 0.409204L18.2491 0.401099L18.2653 0.392995L18.2815 0.384891L18.2978 0.376787L18.301 0.371924L18.3059 0.368683L18.3108 0.365441L18.314 0.360578L18.3302 0.355716L18.3465 0.352474L18.3432 0.376787L18.3383 0.401099L18.3302 0.425412L18.3221 0.449725L18.314 0.465933L18.3059 0.482141L18.2978 0.506454C18.2924 0.522662 18.287 0.544268 18.2815 0.571288C18.2761 0.598307 18.2247 0.706352 18.1273 0.895456C18.03 1.08456 17.9082 1.27635 17.7621 1.47085C17.6161 1.66536 17.4851 1.8123 17.3694 1.91172C17.2525 2.01222 17.1751 2.08245 17.1373 2.12243C17.0994 2.16349 17.0534 2.2013 16.9993 2.23589L16.9181 2.28938L16.9019 2.29748L16.8857 2.30559L16.8824 2.31045L16.8776 2.31369L16.8727 2.31693L16.8694 2.3218L16.8532 2.3299L16.837 2.338L16.8338 2.34287L16.8289 2.34611L16.824 2.34935L16.8208 2.35421L16.8175 2.35908L16.8126 2.36232L16.8078 2.36556L16.8045 2.37042H16.8857L17.3401 2.27317C17.6431 2.20834 17.9326 2.13 18.2085 2.03815L18.6467 1.89227L18.6954 1.87606L18.7198 1.86796L18.736 1.85986L18.7522 1.85175L18.7685 1.84365L18.7847 1.83554L18.8171 1.83068L18.8496 1.82744V1.85986L18.8415 1.8631L18.8334 1.86796L18.8301 1.87282L18.8253 1.87606L18.8204 1.87931L18.8171 1.88417L18.8139 1.88903L18.809 1.89227L18.8042 1.89551L18.8009 1.90038L18.7977 1.90524L18.7928 1.90848L18.7847 1.92469L18.7766 1.9409L18.7717 1.94414C18.7695 1.94738 18.7008 2.03922 18.5656 2.21968C18.4303 2.40122 18.3573 2.49305 18.3465 2.49523C18.3356 2.49847 18.3205 2.51468 18.301 2.54385C18.2826 2.5741 18.1679 2.69459 17.9569 2.9053C17.7459 3.11601 17.5393 3.30347 17.3369 3.46773C17.1335 3.63306 17.0307 3.8362 17.0285 4.07717C17.0253 4.31705 17.0128 4.58828 16.9912 4.89083C16.9695 5.19339 16.929 5.52025 16.8694 5.87144C16.8099 6.22262 16.718 6.61973 16.5935 7.06276C16.4691 7.50578 16.3176 7.93801 16.1391 8.35943C15.9605 8.78085 15.7739 9.15904 15.5791 9.49402C15.3843 9.829 15.2058 10.1126 15.0435 10.345C14.8812 10.5773 14.7162 10.7961 14.5484 11.0014C14.3807 11.2067 14.1687 11.438 13.9122 11.6951C13.6547 11.9512 13.514 12.0917 13.4902 12.1165C13.4653 12.1403 13.3593 12.2289 13.1721 12.3824C12.986 12.5369 12.7858 12.6914 12.5715 12.8459C12.3584 12.9994 12.1625 13.1274 11.984 13.2301C11.8054 13.3327 11.5901 13.4499 11.338 13.5818C11.087 13.7147 10.8153 13.8379 10.5232 13.9513C10.231 14.0648 9.92265 14.1701 9.59803 14.2674C9.27341 14.3646 8.95962 14.4403 8.65664 14.4943C8.35368 14.5483 8.01012 14.5943 7.62598 14.6321L7.04979 14.6888V14.6969H5.99479V14.6888L5.85682 14.6807C5.76486 14.6753 5.68911 14.6699 5.62959 14.6645C5.57009 14.6591 5.34555 14.6294 4.95601 14.5754C4.56647 14.5213 4.2608 14.4673 4.03897 14.4133C3.81716 14.3592 3.48712 14.2566 3.04889 14.1053C2.61066 13.954 2.23572 13.8011 1.92409 13.6466C1.61355 13.4932 1.41878 13.3959 1.33978 13.3549C1.26187 13.3149 1.17423 13.2652 1.07684 13.2057L0.930764 13.1166L0.927534 13.1117L0.922648 13.1085L0.917779 13.1052L0.914533 13.1004L0.898302 13.0923L0.882071 13.0842L0.878841 13.0793L0.873956 13.0761L0.869086 13.0728L0.86584 13.068L0.86261 13.0631L0.857725 13.0599H0.849609V13.0274L0.86584 13.0307L0.882071 13.0356L0.95511 13.0437C1.0038 13.0491 1.13636 13.0572 1.35277 13.068C1.56919 13.0788 1.79911 13.0788 2.04258 13.068C2.28604 13.0572 2.53492 13.0328 2.78919 12.995C3.04348 12.9572 3.34375 12.8924 3.69001 12.8005C4.03627 12.7087 4.3544 12.5995 4.6444 12.4731C4.9333 12.3456 5.13888 12.2505 5.26117 12.1879C5.38235 12.1263 5.56738 12.0117 5.81625 11.8442L6.18956 11.593L6.1928 11.5881L6.19767 11.5849L6.20256 11.5817L6.20579 11.5768L6.20903 11.5719L6.2139 11.5687L6.21879 11.5655L6.22202 11.5606L6.23825 11.5557L6.25448 11.5525L6.25772 11.5363L6.26259 11.5201L6.26748 11.5168L6.27071 11.512L6.14086 11.5039C6.0543 11.4985 5.97044 11.493 5.88928 11.4877C5.80813 11.4823 5.68099 11.4579 5.50786 11.4147C5.33474 11.3715 5.14809 11.3067 4.9479 11.2202C4.74772 11.1338 4.55295 11.0311 4.36359 10.9123C4.17424 10.7934 4.03735 10.6945 3.95295 10.6156C3.86963 10.5378 3.76142 10.4276 3.62833 10.285C3.49632 10.1413 3.38162 9.99377 3.28424 9.8425C3.18685 9.69122 3.0938 9.51669 3.00508 9.31897L2.87035 9.02397L2.86223 8.99966L2.85412 8.97535L2.84925 8.95914L2.846 8.94293L2.87035 8.94617L2.8947 8.95103L3.07323 8.97535C3.19227 8.99156 3.37893 8.99695 3.6332 8.99156C3.88749 8.98616 4.06332 8.97535 4.1607 8.95914C4.25809 8.94293 4.3176 8.93212 4.33924 8.92672L4.3717 8.91862L4.41228 8.91051L4.45286 8.90241L4.4561 8.89755L4.46097 8.89431L4.46586 8.89106L4.46909 8.8862L4.43662 8.8781L4.40416 8.86999L4.3717 8.86189L4.33924 8.85378L4.30678 8.84568C4.28514 8.84028 4.24728 8.82947 4.19316 8.81326C4.13906 8.79706 3.99299 8.73762 3.75493 8.63497C3.51689 8.53232 3.32752 8.43237 3.18685 8.33512C3.04583 8.23758 2.91137 8.13092 2.78433 8.01581C2.65772 7.89911 2.51869 7.74891 2.36719 7.56522C2.21571 7.38153 2.08046 7.16811 1.96142 6.92498C1.8424 6.68186 1.75313 6.44954 1.69361 6.22802C1.63433 6.0078 1.59522 5.78266 1.57677 5.55537L1.54754 5.215L1.56377 5.21824L1.58 5.2231L1.59623 5.2312L1.61246 5.23931L1.62869 5.24741L1.64492 5.25552L1.8965 5.36898C2.06423 5.44462 2.27252 5.50945 2.52139 5.56348C2.77027 5.6175 2.91904 5.64723 2.96773 5.65262L3.04077 5.66073H3.18685L3.18362 5.65587L3.17873 5.65262L3.17387 5.64938L3.17062 5.64452L3.16739 5.63966L3.1625 5.63642L3.15763 5.63317L3.15439 5.62831L3.13816 5.62021L3.12193 5.6121L3.1187 5.60724L3.11381 5.604L3.10894 5.60076L3.1057 5.59589L3.08947 5.58779L3.07323 5.57969L3.07 5.57482C3.06676 5.57265 3.02022 5.53808 2.9304 5.47109C2.84167 5.40301 2.74862 5.31495 2.65123 5.20689C2.55385 5.09883 2.45646 4.98537 2.35908 4.86652C2.26151 4.74739 2.17461 4.61993 2.09938 4.48562C2.02365 4.35055 1.94357 4.17873 1.85917 3.97019C1.77585 3.76272 1.71255 3.55363 1.66927 3.34293C1.626 3.13222 1.60165 2.92421 1.59623 2.7189C1.59082 2.51359 1.59623 2.338 1.61246 2.19213C1.62869 2.04625 1.66115 1.88146 1.70984 1.69777C1.75854 1.51408 1.82888 1.31958 1.92084 1.11427L2.05881 0.80631L2.06692 0.781997L2.07504 0.757684L2.07992 0.754443L2.08315 0.74958L2.0864 0.744718L2.09127 0.741476L2.09615 0.744718L2.09938 0.74958L2.10263 0.754443L2.1075 0.757684L2.11238 0.760926L2.11561 0.765789L2.11886 0.770651L2.12373 0.773893L2.13185 0.790101L2.13996 0.80631L2.14485 0.809551L2.14808 0.814414L2.36719 1.05754C2.51327 1.21962 2.6864 1.40062 2.88658 1.60052C3.08677 1.80042 3.19768 1.90415 3.21931 1.91172C3.24096 1.92036 3.268 1.94521 3.30047 1.98628C3.33293 2.02627 3.44114 2.1219 3.62508 2.27317C3.80904 2.42444 4.0498 2.60005 4.34736 2.79994C4.64493 2.99984 4.97495 3.19705 5.33744 3.39155C5.69994 3.58605 6.08948 3.76164 6.50606 3.91832C6.92265 4.07501 7.21481 4.17766 7.38252 4.22628C7.55025 4.27491 7.83699 4.33704 8.24276 4.41268C8.64853 4.48833 8.95422 4.53695 9.1598 4.55856C9.36539 4.58016 9.50607 4.59259 9.5818 4.59584L9.69542 4.59908L9.69219 4.57476L9.6873 4.55045L9.65484 4.34785C9.6332 4.21278 9.62238 4.02368 9.62238 3.78055C9.62238 3.53743 9.64132 3.31322 9.67919 3.1079C9.71707 2.90259 9.77388 2.69459 9.84961 2.48388C9.92536 2.27317 9.99949 2.10405 10.072 1.97656C10.1456 1.85013 10.2419 1.70588 10.3609 1.54379C10.4799 1.38171 10.6341 1.21423 10.8235 1.04133C11.0128 0.868436 11.2292 0.714457 11.4727 0.579392C11.7162 0.444327 11.9407 0.341663 12.1463 0.271432C12.3519 0.201201 12.525 0.155266 12.6657 0.133661C12.8063 0.112055 12.8767 0.099623 12.8767 0.0963813Z" fill="#696974"/>
</svg>
