<svg width="20" height="20" viewBox="0 0 20 20" fill="none" xmlns="http://www.w3.org/2000/svg">
<path fill-rule="evenodd" clip-rule="evenodd" d="M12.5 3.33332V2.49999C12.5 2.03999 12.8733 1.66666 13.3333 1.66666C13.7933 1.66666 14.1667 2.03999 14.1667 2.49999V3.33332C16.0075 3.33332 17.5 4.82582 17.5 6.66666V15C17.5 16.8408 16.0075 18.3333 14.1667 18.3333C11.7833 18.3333 8.21583 18.3333 5.83333 18.3333C3.9925 18.3333 2.5 16.8408 2.5 15V6.66666C2.5 4.82582 3.9925 3.33332 5.83333 3.33332V2.49999C5.83333 2.03999 6.20667 1.66666 6.66667 1.66666C7.12667 1.66666 7.5 2.03999 7.5 2.49999V3.33332H12.5ZM15.8333 9.99999H4.16667V15C4.16667 15.92 4.9125 16.6667 5.83333 16.6667H14.1667C15.0867 16.6667 15.8333 15.92 15.8333 15V9.99999ZM14.1667 4.99999V5.83332C14.1667 6.29332 13.7933 6.66666 13.3333 6.66666C12.8733 6.66666 12.5 6.29332 12.5 5.83332V4.99999H7.5V5.83332C7.5 6.29332 7.12667 6.66666 6.66667 6.66666C6.20667 6.66666 5.83333 6.29332 5.83333 5.83332V4.99999C4.9125 4.99999 4.16667 5.74582 4.16667 6.66666V8.33332H15.8333V6.66666C15.8333 5.74582 15.0867 4.99999 14.1667 4.99999Z" fill="#696974"/>
</svg>
