<svg width="19" height="18" viewBox="0 0 19 18" fill="none" xmlns="http://www.w3.org/2000/svg">
<path d="M0.849609 2.31492C0.849609 1.73771 1.05232 1.26152 1.45772 0.886348C1.86312 0.511162 2.39016 0.323578 3.0388 0.323578C3.67587 0.323578 4.1913 0.50827 4.58513 0.87769C4.99053 1.25864 5.19324 1.75502 5.19324 2.36687C5.19324 2.92098 4.99633 3.38273 4.6025 3.75215C4.19711 4.1331 3.66428 4.32358 3.00405 4.32358H2.98668C2.3496 4.32358 1.83417 4.1331 1.44034 3.75215C1.04651 3.3712 0.849609 2.89211 0.849609 2.31492ZM1.07548 17.4664V5.89933H4.93262V17.4664H1.07548ZM7.06969 17.4664H10.9268V11.0076C10.9268 10.6035 10.9732 10.2918 11.0658 10.0725C11.228 9.67999 11.4741 9.34809 11.8042 9.07682C12.1344 8.80553 12.5484 8.6699 13.0465 8.6699C14.3438 8.6699 14.9925 9.54146 14.9925 11.2846V17.4664H18.8496V10.8344C18.8496 9.12588 18.4442 7.83007 17.6334 6.94695C16.8226 6.06384 15.7512 5.62228 14.4191 5.62228C12.9249 5.62228 11.7608 6.26297 10.9268 7.54435V7.57899H10.9095L10.9268 7.54435V5.89933H7.06969C7.09285 6.26874 7.10444 7.41736 7.10444 9.34522C7.10444 11.2731 7.09285 13.9801 7.06969 17.4664Z" fill="#696974"/>
</svg>
