<svg width="24" height="25" viewBox="0 0 24 25" fill="none" xmlns="http://www.w3.org/2000/svg">
<path d="M20.9532 16.151L18.9411 14.502C17.6302 13.4276 15.5953 13.5293 14.3994 14.7256L14.3195 14.8055C14.119 15.0061 13.7924 15.0045 13.5947 14.8067L9.707 10.9177C9.51074 10.7214 9.50686 10.4056 9.69598 10.2051C9.69943 10.2014 9.70293 10.1978 9.70647 10.1942L9.69579 10.2049C9.69934 10.2014 9.70288 10.1978 9.70643 10.1942C10.8957 8.99317 11.0095 6.94819 9.96771 5.63064L8.33574 3.56673C7.28677 2.24007 5.46367 2.13759 4.26792 3.33373L3.96816 3.6336C1.84429 5.75818 1.34381 9.58748 2.93692 12.1335C2.93692 12.1335 3.87473 14.3091 7.03957 17.475C10.2044 20.6409 12.3793 21.5791 12.3793 21.5791C14.9482 23.1339 18.7512 22.6734 20.8746 20.5492L21.1601 20.2637C22.3567 19.0666 22.2632 17.2246 20.9532 16.151ZM19.7144 18.8176L19.4289 19.1031C17.9711 20.5614 15.2018 20.897 13.4376 19.8293L13.3176 19.7566L13.1888 19.7011C13.0306 19.6329 12.6343 19.4179 12.035 19.0159C10.9708 18.3018 9.77567 17.3199 8.48515 16.029C7.19463 14.738 6.21307 13.5425 5.49927 12.4779C5.09735 11.8784 4.8824 11.4819 4.81426 11.3238L4.75255 11.1806L4.66984 11.0484C3.59725 9.3343 3.94305 6.55098 5.41378 5.07975L5.71355 4.77989C6.04594 4.44739 6.44335 4.47001 6.73238 4.83554L8.36435 6.89945C8.76675 7.40834 8.71466 8.29432 8.25026 8.75892C7.26233 9.75874 7.26722 11.3694 8.26143 12.3639L12.1491 16.2529C13.1457 17.2498 14.7668 17.2504 15.7652 16.2517L15.8451 16.1718C16.2984 15.7183 17.1481 15.6763 17.6455 16.084L19.6576 17.7331C20.0333 18.0409 20.0553 18.4766 19.7144 18.8176Z" fill="#981B1E"/>
</svg>
