<svg width="24" height="25" viewBox="0 0 24 25" fill="none" xmlns="http://www.w3.org/2000/svg">
<g clip-path="url(#clip0_302_5779)">
<path d="M12 20.5667C11.3149 20.5667 10.6527 20.3157 10.1353 19.86C7.68056 17.6979 3.5625 13.4039 3.5625 8.9375C3.5625 4.28506 7.34756 0.5 12 0.5C16.6524 0.5 20.4375 4.28506 20.4375 8.9375C20.4375 13.4039 16.3194 17.6979 13.8646 19.86C13.3473 20.3157 12.6851 20.5667 12 20.5667ZM12 2.375C8.38144 2.375 5.4375 5.31894 5.4375 8.9375C5.4375 12.806 9.5895 16.8807 11.3746 18.453C11.5494 18.6069 11.7715 18.6917 12 18.6917C12.2285 18.6917 12.4506 18.6069 12.6254 18.453C14.4105 16.8807 18.5625 12.806 18.5625 8.9375C18.5625 5.31894 15.6186 2.375 12 2.375Z" fill="#981B1E"/>
<path d="M12 24.5C9.40711 24.5 6.95719 24.1934 5.1015 23.6367C4.14267 23.3491 3.37491 23.0034 2.81939 22.6094C1.88386 21.9459 1.6875 21.232 1.6875 20.75C1.6875 20.2383 1.90795 19.4839 2.95814 18.796C3.58467 18.3855 4.44675 18.0318 5.52047 17.7446C6.02053 17.6108 6.53461 17.9077 6.66839 18.4079C6.80217 18.9081 6.50522 19.422 6.00502 19.5558C4.17586 20.0452 3.63202 20.5992 3.5662 20.75C3.63009 20.8955 4.14886 21.4294 5.88502 21.9114C7.54261 22.3716 9.71428 22.625 12 22.625C14.2857 22.625 16.4574 22.3716 18.115 21.9114C19.8512 21.4294 20.3699 20.8955 20.4338 20.75C20.368 20.5992 19.8241 20.0452 17.995 19.5559C17.4948 19.4221 17.1978 18.9081 17.3317 18.4079C17.4654 17.9078 17.9792 17.6107 18.4796 17.7446C19.5532 18.0318 20.4153 18.3856 21.0419 18.796C22.092 19.4839 22.3125 20.2383 22.3125 20.75C22.3125 21.232 22.1161 21.9459 21.1807 22.6094C20.6251 23.0034 19.8574 23.3491 18.8985 23.6367C17.0428 24.1934 14.5928 24.5 12 24.5ZM20.439 20.7642H20.4394H20.439Z" fill="#981B1E"/>
<path d="M12 12.6875C9.93225 12.6875 8.25 11.0052 8.25 8.9375C8.25 6.86975 9.93225 5.1875 12 5.1875C14.0677 5.1875 15.75 6.86975 15.75 8.9375C15.75 11.0052 14.0677 12.6875 12 12.6875ZM12 7.0625C10.9661 7.0625 10.125 7.90363 10.125 8.9375C10.125 9.97137 10.9661 10.8125 12 10.8125C13.0339 10.8125 13.875 9.97137 13.875 8.9375C13.875 7.90363 13.0339 7.0625 12 7.0625Z" fill="#981B1E"/>
</g>
<defs>
<clipPath id="clip0_302_5779">
<rect width="24" height="24" fill="white" transform="translate(0 0.5)"/>
</clipPath>
</defs>
</svg>
