<svg width="30" height="30" viewBox="0 0 30 30" fill="none" xmlns="http://www.w3.org/2000/svg">
<g clip-path="url(#clip0_302_5518)">
<path d="M19.9969 5.97188C19.7325 5.9694 19.4798 5.86263 19.2937 5.67477C19.1076 5.48692 19.0032 5.23318 19.0032 4.96875C19.0032 4.7027 18.8975 4.44756 18.7094 4.25943C18.5212 4.07131 18.2661 3.96563 18 3.96563H12C11.8683 3.96563 11.7379 3.99157 11.6162 4.04198C11.4945 4.0924 11.3839 4.16628 11.2907 4.25943C11.1976 4.35258 11.1237 4.46317 11.0733 4.58487C11.0229 4.70658 10.9969 4.83702 10.9969 4.96875C11.0104 5.108 10.9947 5.24853 10.9506 5.38132C10.9066 5.51411 10.8353 5.63622 10.7413 5.73981C10.6472 5.8434 10.5326 5.92618 10.4047 5.98283C10.2767 6.03947 10.1384 6.06874 9.99849 6.06874C9.85859 6.06874 9.72023 6.03947 9.59231 5.98283C9.4644 5.92618 9.34974 5.8434 9.25571 5.73981C9.16169 5.63622 9.09037 5.51411 9.04634 5.38132C9.00231 5.24853 8.98654 5.108 9.00005 4.96875C9.00005 4.1731 9.31612 3.41004 9.87873 2.84743C10.4413 2.28482 11.2044 1.96875 12 1.96875H18C18.7957 1.96875 19.5588 2.28482 20.1214 2.84743C20.684 3.41004 21 4.1731 21 4.96875C21 5.2348 20.8944 5.48994 20.7062 5.67807C20.5181 5.86619 20.263 5.97188 19.9969 5.97188Z" fill="#981B1E"/>
<path d="M30 12.9656C29.9975 11.6411 29.4703 10.3716 28.5337 9.43504C27.5972 8.49848 26.3276 7.97123 25.0031 7.96875H4.99687C4.08973 7.97033 3.2 8.21791 2.42243 8.68512C1.64485 9.15232 1.00854 9.82167 0.58125 10.6219C0.486814 10.852 0.481281 11.1091 0.565727 11.3431C0.650172 11.5771 0.818569 11.7714 1.03822 11.8883C1.25787 12.0051 1.5131 12.0361 1.75436 11.9754C1.99561 11.9146 2.20567 11.7663 2.34375 11.5594C2.60047 11.0759 2.98385 10.6712 3.45285 10.3889C3.92184 10.1065 4.4588 9.95693 5.00625 9.95625H25.0031C25.7988 9.95625 26.5618 10.2723 27.1244 10.8349C27.6871 11.3975 28.0031 12.1606 28.0031 12.9562V14.2031L16.3781 17.5219C15.4805 17.779 14.5288 17.779 13.6313 17.5219L1.275 14.0062C1.12394 13.9695 0.966522 13.9674 0.814525 14C0.662528 14.0327 0.519885 14.0993 0.397263 14.1949C0.274641 14.2905 0.175215 14.4125 0.106421 14.5519C0.0376277 14.6914 0.00124693 14.8445 0 15L0 24C0.00988274 25.3196 0.5404 26.5819 1.47616 27.5124C2.41192 28.4429 3.67723 28.9663 4.99687 28.9688H25.0031C26.3276 28.9663 27.5972 28.439 28.5337 27.5025C29.4703 26.5659 29.9975 25.2964 30 23.9719V18.9656C29.9759 18.7175 29.8603 18.4873 29.6758 18.3197C29.4912 18.1522 29.2508 18.0594 29.0016 18.0594C28.7523 18.0594 28.5119 18.1522 28.3274 18.3197C28.1428 18.4873 28.0272 18.7175 28.0031 18.9656V23.9625C28.0031 24.7581 27.6871 25.5212 27.1244 26.0838C26.5618 26.6464 25.7988 26.9625 25.0031 26.9625H4.99687C4.20123 26.9625 3.43816 26.6464 2.87555 26.0838C2.31295 25.5212 1.99688 24.7581 1.99688 23.9625V16.2937L13.0781 19.4625C14.3342 19.822 15.6658 19.822 16.9219 19.4625L29.2781 15.9375C29.4781 15.8708 29.6536 15.7459 29.7821 15.5789C29.9107 15.4119 29.9866 15.2104 30 15V12.9656Z" fill="#981B1E"/>
</g>
<defs>
<clipPath id="clip0_302_5518">
<rect width="30" height="30" fill="white"/>
</clipPath>
</defs>
</svg>
