<svg width="20" height="20" viewBox="0 0 20 20" fill="none" xmlns="http://www.w3.org/2000/svg">
<path fill-rule="evenodd" clip-rule="evenodd" d="M18.2501 4.49867C18.7561 4.49867 19.1667 4.90932 19.1667 5.41529C19.1667 5.92127 18.7561 6.33191 18.2501 6.33191H14.5836C14.0776 6.33191 13.667 5.92127 13.667 5.41529C13.667 4.90932 14.0776 4.49867 14.5836 4.49867H18.2501Z" fill="#696974"/>
<path fill-rule="evenodd" clip-rule="evenodd" d="M7.25047 2.66543C9.27436 2.66543 10.9169 4.30801 10.9169 6.33191C10.9169 8.35581 9.27436 9.99839 7.25047 9.99839C5.22657 9.99839 3.58398 8.35581 3.58398 6.33191C3.58398 4.30801 5.22657 2.66543 7.25047 2.66543ZM7.25047 4.49867C8.26242 4.49867 9.08371 5.31996 9.08371 6.33191C9.08371 7.34386 8.26242 8.16515 7.25047 8.16515C6.23852 8.16515 5.41723 7.34386 5.41723 6.33191C5.41723 5.31996 6.23852 4.49867 7.25047 4.49867Z" fill="#696974"/>
<path fill-rule="evenodd" clip-rule="evenodd" d="M10.0114 10.8811C12.0361 10.8811 13.6778 12.5221 13.6778 14.5467V16.3795C13.6778 16.8853 13.2672 17.2958 12.7607 17.2958C10.3984 17.2958 4.12372 17.2958 1.76135 17.2958C1.25491 17.2958 0.844238 16.8853 0.844238 16.3795C0.844238 15.8809 0.844238 15.2272 0.844238 14.5467C0.844238 12.5221 2.48596 10.8811 4.5107 10.8811H10.0114ZM10.0114 12.7139H4.5107C3.49882 12.7139 2.67746 13.535 2.67746 14.5467V15.4631H11.8446V14.5467C11.8446 13.535 11.0233 12.7139 10.0114 12.7139Z" fill="#696974"/>
<path fill-rule="evenodd" clip-rule="evenodd" d="M16.4169 8.16515C16.9228 8.16515 17.3335 8.5758 17.3335 9.08177C17.3335 9.58775 16.9228 9.99839 16.4169 9.99839H14.5836C14.0776 9.99839 13.667 9.58775 13.667 9.08177C13.667 8.5758 14.0776 8.16515 14.5836 8.16515H16.4169Z" fill="#696974"/>
</svg>
