<svg width="30" height="30" viewBox="0 0 30 30" fill="none" xmlns="http://www.w3.org/2000/svg">
<path d="M21.4325 13.7135C21.979 13.7135 22.4221 13.2705 22.4221 12.7239C22.4221 12.1774 21.979 11.7343 21.4325 11.7343C20.8859 11.7343 20.4429 12.1774 20.4429 12.7239C20.4429 13.2705 20.8859 13.7135 21.4325 13.7135Z" fill="#981B1E"/>
<path d="M23.7086 4.31223H22.4221V3.32262C22.4221 2.77606 21.979 2.33301 21.4325 2.33301C20.8859 2.33301 20.4428 2.77606 20.4428 3.32262V4.31223H15.9401V3.32262C15.9401 2.77606 15.4971 2.33301 14.9505 2.33301C14.404 2.33301 13.9609 2.77606 13.9609 3.32262V4.31223H9.50767V3.32262C9.50767 2.77606 9.06462 2.33301 8.51806 2.33301C7.9715 2.33301 7.52845 2.77606 7.52845 3.32262V4.31223H6.29144C4.10876 4.31223 2.33301 6.08798 2.33301 8.27066V23.7086C2.33301 25.8912 4.10876 27.667 6.29144 27.667H13.8619C14.4085 27.667 14.8516 27.2239 14.8516 26.6774C14.8516 26.1308 14.4085 25.6878 13.8619 25.6878H6.29144C5.2001 25.6878 4.31223 24.7999 4.31223 23.7086V8.27066C4.31223 7.17932 5.2001 6.29144 6.29144 6.29144H7.52845V7.28105C7.52845 7.82761 7.9715 8.27066 8.51806 8.27066C9.06462 8.27066 9.50767 7.82761 9.50767 7.28105V6.29144H13.9609V7.28105C13.9609 7.82761 14.404 8.27066 14.9505 8.27066C15.4971 8.27066 15.9401 7.82761 15.9401 7.28105V6.29144H20.4428V7.28105C20.4428 7.82761 20.8859 8.27066 21.4325 8.27066C21.979 8.27066 22.4221 7.82761 22.4221 7.28105V6.29144H23.7086C24.7999 6.29144 25.6878 7.17932 25.6878 8.27066V13.9114C25.6878 14.458 26.1308 14.901 26.6774 14.901C27.2239 14.901 27.667 14.458 27.667 13.9114V8.27066C27.667 6.08798 25.8912 4.31223 23.7086 4.31223Z" fill="#981B1E"/>
<path d="M21.6798 15.6927C18.3784 15.6927 15.6926 18.3785 15.6926 21.6799C15.6926 24.9812 18.3784 27.667 21.6798 27.667C24.9811 27.667 27.6669 24.9812 27.6669 21.6799C27.6669 18.3785 24.9811 15.6927 21.6798 15.6927ZM21.6798 25.6878C19.4698 25.6878 17.6718 23.8899 17.6718 21.6799C17.6718 19.4699 19.4698 17.672 21.6798 17.672C23.8897 17.672 25.6877 19.4699 25.6877 21.6799C25.6877 23.8899 23.8897 25.6878 21.6798 25.6878Z" fill="#981B1E"/>
<path d="M23.1147 20.6903H22.6694V19.6512C22.6694 19.1046 22.2264 18.6616 21.6798 18.6616C21.1332 18.6616 20.6902 19.1046 20.6902 19.6512V21.6799C20.6902 22.2264 21.1332 22.6695 21.6798 22.6695H23.1147C23.6613 22.6695 24.1043 22.2264 24.1043 21.6799C24.1043 21.1333 23.6613 20.6903 23.1147 20.6903Z" fill="#981B1E"/>
<path d="M17.1275 13.7135C17.6741 13.7135 18.1172 13.2705 18.1172 12.7239C18.1172 12.1774 17.6741 11.7343 17.1275 11.7343C16.581 11.7343 16.1379 12.1774 16.1379 12.7239C16.1379 13.2705 16.581 13.7135 17.1275 13.7135Z" fill="#981B1E"/>
<path d="M12.8229 18.0183C13.3694 18.0183 13.8125 17.5752 13.8125 17.0287C13.8125 16.4821 13.3694 16.0391 12.8229 16.0391C12.2763 16.0391 11.8333 16.4821 11.8333 17.0287C11.8333 17.5752 12.2763 18.0183 12.8229 18.0183Z" fill="#981B1E"/>
<path d="M8.51817 13.7135C9.06472 13.7135 9.50778 13.2705 9.50778 12.7239C9.50778 12.1774 9.06472 11.7343 8.51817 11.7343C7.97163 11.7343 7.52856 12.1774 7.52856 12.7239C7.52856 13.2705 7.97163 13.7135 8.51817 13.7135Z" fill="#981B1E"/>
<path d="M8.51817 18.0183C9.06472 18.0183 9.50778 17.5752 9.50778 17.0287C9.50778 16.4821 9.06472 16.0391 8.51817 16.0391C7.97163 16.0391 7.52856 16.4821 7.52856 17.0287C7.52856 17.5752 7.97163 18.0183 8.51817 18.0183Z" fill="#981B1E"/>
<path d="M8.51817 22.3231C9.06472 22.3231 9.50778 21.88 9.50778 21.3335C9.50778 20.7869 9.06472 20.3439 8.51817 20.3439C7.97163 20.3439 7.52856 20.7869 7.52856 21.3335C7.52856 21.88 7.97163 22.3231 8.51817 22.3231Z" fill="#981B1E"/>
<path d="M12.8229 22.3231C13.3694 22.3231 13.8125 21.88 13.8125 21.3335C13.8125 20.7869 13.3694 20.3439 12.8229 20.3439C12.2763 20.3439 11.8333 20.7869 11.8333 21.3335C11.8333 21.88 12.2763 22.3231 12.8229 22.3231Z" fill="#981B1E"/>
<path d="M12.8229 13.7135C13.3694 13.7135 13.8125 13.2705 13.8125 12.7239C13.8125 12.1774 13.3694 11.7343 12.8229 11.7343C12.2763 11.7343 11.8333 12.1774 11.8333 12.7239C11.8333 13.2705 12.2763 13.7135 12.8229 13.7135Z" fill="#981B1E"/>
</svg>
