<svg width="20" height="20" viewBox="0 0 20 20" fill="none" xmlns="http://www.w3.org/2000/svg">
<g clip-path="url(#clip0_302_6942)">
<path d="M15.9418 3.92501L13.6085 1.57501C13.3763 1.3403 13.0998 1.15391 12.7952 1.02661C12.4905 0.899315 12.1637 0.833628 11.8335 0.833344H5.8335C5.17045 0.833344 4.53457 1.09674 4.06573 1.56558C3.59689 2.03442 3.3335 2.6703 3.3335 3.33334V16.6667C3.3335 17.3297 3.59689 17.9656 4.06573 18.4344C4.53457 18.9033 5.17045 19.1667 5.8335 19.1667H14.1668C14.8299 19.1667 15.4658 18.9033 15.9346 18.4344C16.4034 17.9656 16.6668 17.3297 16.6668 16.6667V5.68334C16.6663 5.02461 16.4057 4.39271 15.9418 3.92501ZM14.6585 5.00001H13.3335C13.1125 5.00001 12.9005 4.91221 12.7442 4.75593C12.588 4.59965 12.5002 4.38769 12.5002 4.16668V2.82501L14.6585 5.00001ZM14.1668 17.5H5.8335C5.61248 17.5 5.40052 17.4122 5.24424 17.2559C5.08796 17.0997 5.00016 16.8877 5.00016 16.6667V3.33334C5.00016 3.11233 5.08796 2.90037 5.24424 2.74409C5.40052 2.58781 5.61248 2.50001 5.8335 2.50001H10.8335V4.16668C10.8335 4.82972 11.0969 5.4656 11.5657 5.93444C12.0346 6.40328 12.6705 6.66668 13.3335 6.66668H15.0002V16.6667C15.0002 16.8877 14.9124 17.0997 14.7561 17.2559C14.5998 17.4122 14.3878 17.5 14.1668 17.5ZM12.3585 9.65834C12.5137 9.81448 12.6008 10.0257 12.6008 10.2458C12.6008 10.466 12.5137 10.6772 12.3585 10.8333L10.0002 13.1917C9.9223 13.2689 9.82995 13.33 9.72842 13.3715C9.62689 13.413 9.51817 13.434 9.4085 13.4333C9.18988 13.4324 8.98038 13.3456 8.82516 13.1917L7.64183 12.0083C7.48662 11.8522 7.3995 11.641 7.3995 11.4208C7.3995 11.2007 7.48662 10.9895 7.64183 10.8333C7.7193 10.7552 7.81147 10.6932 7.91302 10.6509C8.01456 10.6086 8.12349 10.5868 8.2335 10.5868C8.34351 10.5868 8.45243 10.6086 8.55398 10.6509C8.65553 10.6932 8.74769 10.7552 8.82516 10.8333L9.4085 11.425L11.1752 9.65834C11.2526 9.58024 11.3448 9.51824 11.4463 9.47593C11.5479 9.43363 11.6568 9.41184 11.7668 9.41184C11.8768 9.41184 11.9858 9.43363 12.0873 9.47593C12.1889 9.51824 12.281 9.58024 12.3585 9.65834Z" fill="#696974"/>
</g>
<defs>
<clipPath id="clip0_302_6942">
<rect width="20" height="20" fill="white"/>
</clipPath>
</defs>
</svg>
