<svg width="24" height="24" viewBox="0 0 24 24" fill="none" xmlns="http://www.w3.org/2000/svg">
<path d="M9.86667 17.6C10.386 17.2105 11.0176 17 11.6667 17H19C19.5523 17 20 16.5523 20 16V8C20 7.44772 19.5523 7 19 7H5C4.44772 7 4 7.44772 4 8V16C4 16.5523 4.44772 17 5 17H7C7.55228 17 8 17.4477 8 18V19L9.86667 17.6ZM5 19C3.34315 19 2 17.6569 2 16V8C2 6.34315 3.34315 5 5 5H19C20.6569 5 22 6.34315 22 8V16C22 17.6569 20.6569 19 19 19H11.6667C11.4503 19 11.2398 19.0702 11.0667 19.2L7.6 21.8C6.94076 22.2944 6 21.824 6 21V19H5Z" fill="#696974"/>
<path d="M8 13C8.55228 13 9 12.5523 9 12C9 11.4477 8.55228 11 8 11C7.44772 11 7 11.4477 7 12C7 12.5523 7.44772 13 8 13Z" fill="#696974"/>
<path d="M12 13C12.5523 13 13 12.5523 13 12C13 11.4477 12.5523 11 12 11C11.4477 11 11 11.4477 11 12C11 12.5523 11.4477 13 12 13Z" fill="#696974"/>
<path d="M16 13C16.5523 13 17 12.5523 17 12C17 11.4477 16.5523 11 16 11C15.4477 11 15 11.4477 15 12C15 12.5523 15.4477 13 16 13Z" fill="#696974"/>
</svg>
