<svg width="24" height="24" viewBox="0 0 24 24" fill="none" xmlns="http://www.w3.org/2000/svg">
<path d="M12.937 20.431V12.7898H11.063V20.3947L8.53985 17.8715L7.21478 19.1966L12.0182 24L16.8217 19.1966L15.4966 17.8715L12.937 20.431Z" fill="#696974"/>
<path d="M15.5605 8.24542H3.19238V10.1194H15.5605V8.24542Z" fill="#696974"/>
<path d="M21.1824 0H2.81761C1.26764 0 0.00665283 1.26098 0.00665283 2.81095V14.8043C0.00665283 16.3543 1.26764 17.6152 2.81761 17.6152H5.34745V15.7413H2.81761C2.30095 15.7413 1.88062 15.321 1.88062 14.8043V6.83995H22.1194V14.8043C22.1194 15.321 21.699 15.7413 21.1824 15.7413H18.6994V17.6152H21.1824C22.7324 17.6152 23.9933 16.3543 23.9933 14.8043V2.81095C23.9933 1.26098 22.7324 0 21.1824 0ZM22.1194 4.029H1.88062V2.81095C1.88062 2.2943 2.30095 1.87397 2.81761 1.87397H21.1824C21.6991 1.87397 22.1194 2.2943 22.1194 2.81095V4.029H22.1194Z" fill="#696974"/>
</svg>
