<svg width="24" height="24" viewBox="0 0 24 24" fill="none" xmlns="http://www.w3.org/2000/svg">
<path fill-rule="evenodd" clip-rule="evenodd" d="M21.9001 5.39838C22.5072 5.39838 23 5.89115 23 6.49832C23 7.10549 22.5072 7.59827 21.9001 7.59827H17.5003C16.8931 7.59827 16.4003 7.10549 16.4003 6.49832C16.4003 5.89115 16.8931 5.39838 17.5003 5.39838H21.9001Z" fill="#696974"/>
<path fill-rule="evenodd" clip-rule="evenodd" d="M8.70071 3.1985C11.1294 3.1985 13.1005 5.1696 13.1005 7.59828C13.1005 10.027 11.1294 11.9981 8.70071 11.9981C6.27203 11.9981 4.30093 10.027 4.30093 7.59828C4.30093 5.1696 6.27203 3.1985 8.70071 3.1985ZM8.70071 5.39839C9.91505 5.39839 10.9006 6.38394 10.9006 7.59828C10.9006 8.81262 9.91505 9.79817 8.70071 9.79817C7.48637 9.79817 6.50082 8.81262 6.50082 7.59828C6.50082 6.38394 7.48637 5.39839 8.70071 5.39839Z" fill="#696974"/>
<path fill-rule="evenodd" clip-rule="evenodd" d="M12.0138 13.0573C14.4435 13.0573 16.4135 15.0265 16.4135 17.456V19.6553C16.4135 20.2623 15.9207 20.755 15.313 20.755C12.4782 20.755 4.94859 20.755 2.11375 20.755C1.50603 20.755 1.01321 20.2623 1.01321 19.6553C1.01321 19.0571 1.01321 18.2727 1.01321 17.456C1.01321 15.0265 2.98328 13.0573 5.41297 13.0573H12.0138ZM12.0138 15.2567H5.41297C4.19872 15.2567 3.21308 16.242 3.21308 17.456V18.5557H14.2137V17.456C14.2137 16.242 13.228 15.2567 12.0138 15.2567Z" fill="#696974"/>
<path fill-rule="evenodd" clip-rule="evenodd" d="M19.7002 9.79817C20.3073 9.79817 20.8001 10.2909 20.8001 10.8981C20.8001 11.5053 20.3073 11.9981 19.7002 11.9981H17.5003C16.8931 11.9981 16.4003 11.5053 16.4003 10.8981C16.4003 10.2909 16.8931 9.79817 17.5003 9.79817H19.7002Z" fill="#696974"/>
</svg>
