<svg width="24" height="25" viewBox="0 0 24 25" fill="none" xmlns="http://www.w3.org/2000/svg">
<path d="M12 11.5C12.9889 11.5 13.9556 11.2068 14.7779 10.6573C15.6001 10.1079 16.241 9.32705 16.6194 8.41342C16.9978 7.49979 17.0969 6.49446 16.9039 5.52455C16.711 4.55465 16.2348 3.66373 15.5355 2.96447C14.8363 2.26521 13.9454 1.789 12.9755 1.59608C12.0055 1.40315 11.0002 1.50217 10.0866 1.8806C9.17295 2.25904 8.39206 2.89991 7.84265 3.72215C7.29324 4.5444 7 5.5111 7 6.5C7 7.82609 7.52678 9.09785 8.46447 10.0355C9.40215 10.9732 10.6739 11.5 12 11.5ZM12 3.5C12.5933 3.5 13.1734 3.67595 13.6667 4.00559C14.1601 4.33524 14.5446 4.80377 14.7716 5.35195C14.9987 5.90013 15.0581 6.50333 14.9424 7.08527C14.8266 7.66722 14.5409 8.20177 14.1213 8.62132C13.7018 9.04088 13.1672 9.3266 12.5853 9.44236C12.0033 9.55811 11.4001 9.4987 10.8519 9.27164C10.3038 9.04458 9.83524 8.66006 9.50559 8.16671C9.17595 7.67337 9 7.09335 9 6.5C9 5.70435 9.31607 4.94129 9.87868 4.37868C10.4413 3.81607 11.2044 3.5 12 3.5ZM17 13.5H7C5.67392 13.5 4.40215 14.0268 3.46447 14.9645C2.52678 15.9022 2 17.1739 2 18.5V20.5C2 21.2957 2.31607 22.0587 2.87868 22.6213C3.44129 23.1839 4.20435 23.5 5 23.5H19C19.7956 23.5 20.5587 23.1839 21.1213 22.6213C21.6839 22.0587 22 21.2957 22 20.5V18.5C22 17.1739 21.4732 15.9022 20.5355 14.9645C19.5979 14.0268 18.3261 13.5 17 13.5ZM20 20.5C20 20.7652 19.8946 21.0196 19.7071 21.2071C19.5196 21.3946 19.2652 21.5 19 21.5H5C4.73478 21.5 4.48043 21.3946 4.29289 21.2071C4.10536 21.0196 4 20.7652 4 20.5V18.5C4 17.7044 4.31607 16.9413 4.87868 16.3787C5.44129 15.8161 6.20435 15.5 7 15.5H17C17.7956 15.5 18.5587 15.8161 19.1213 16.3787C19.6839 16.9413 20 17.7044 20 18.5V20.5Z" fill="#981B1E"/>
</svg>
