<svg width="30" height="30" viewBox="0 0 30 30" fill="none" xmlns="http://www.w3.org/2000/svg">
<path d="M18.6165 20.3525C18.3887 20.9583 17.7127 21.2648 17.1071 21.0371C16.173 20.6859 15.1881 20.5078 14.1797 20.5078H12.4219C7.83404 20.5078 4.10156 24.2403 4.10156 28.8281C4.10156 29.4754 3.57691 30 2.92969 30C2.28246 30 1.75781 29.4754 1.75781 28.8281C1.75781 22.9479 6.5417 18.1641 12.4219 18.1641H14.1797C15.4707 18.1641 16.7332 18.3926 17.9319 18.8432C18.5377 19.071 18.8442 19.7467 18.6165 20.3525ZM21.0938 7.91016C21.0938 12.2718 17.5453 15.8203 13.1836 15.8203C8.82193 15.8203 5.27344 12.2718 5.27344 7.91016C5.27344 3.5485 8.82193 0 13.1836 0C17.5453 0 21.0938 3.5485 21.0938 7.91016ZM18.75 7.91016C18.75 4.84084 16.2529 2.34375 13.1836 2.34375C10.1143 2.34375 7.61719 4.84084 7.61719 7.91016C7.61719 10.9795 10.1143 13.4766 13.1836 13.4766C16.2529 13.4766 18.75 10.9795 18.75 7.91016ZM28.2422 24.9804C28.2422 23.1496 26.614 21.6601 24.6127 21.6601C23.7619 21.6602 23.1445 21.2494 23.1445 20.6836C23.1445 20.1451 23.5782 19.707 24.1113 19.707C24.6488 19.707 25.3489 19.7656 26.4665 20.2003C27.0696 20.4348 27.7488 20.136 27.9834 19.5328C28.218 18.9296 27.9192 18.2504 27.316 18.0159C26.7342 17.7896 26.227 17.6413 25.7812 17.5436V16.6406C25.7812 15.9934 25.2566 15.4688 24.6094 15.4688C23.9621 15.4688 23.4375 15.9934 23.4375 16.6406V17.4326C21.9341 17.7456 20.8008 19.0843 20.8008 20.6836C20.8008 22.5765 22.4395 24.0039 24.6127 24.0039C25.3097 24.0039 25.8984 24.4511 25.8984 24.9805C25.8984 25.5007 25.4147 25.9571 24.8633 25.9571C24.433 25.9571 23.3535 25.7993 22.2884 25.3759C21.687 25.137 21.0056 25.4306 20.7665 26.032C20.5274 26.6334 20.8212 27.3148 21.4226 27.5539C22.1012 27.8237 22.8092 28.0161 23.4375 28.1381V28.8281C23.4375 29.4754 23.9621 30 24.6094 30C25.2566 30 25.7812 29.4754 25.7812 28.8281V28.1737C26.3171 28.0229 26.8123 27.7412 27.2249 27.3434C27.8809 26.7113 28.2422 25.8721 28.2422 24.9804Z" fill="#981B1E"/>
</svg>
