<svg width="30" height="30" viewBox="0 0 30 30" fill="none" xmlns="http://www.w3.org/2000/svg">
<path d="M25.6055 15.712H22.6689C22.2692 15.712 21.8822 15.7667 21.514 15.8671C20.7875 14.439 19.3044 13.4578 17.5954 13.4578H12.4046C10.6956 13.4578 9.21246 14.439 8.48602 15.8671C8.11775 15.7667 7.7308 15.712 7.33113 15.712H4.39453C1.97139 15.712 0 17.6834 0 20.1066V24.801C0 26.2549 1.18283 27.4377 2.63672 27.4377H27.3633C28.8172 27.4377 30 26.2549 30 24.801V20.1066C30 17.6834 28.0286 15.712 25.6055 15.712ZM8.01006 17.8525V25.68H2.63672C2.15209 25.68 1.75781 25.2857 1.75781 24.801V20.1066C1.75781 18.6527 2.94064 17.4699 4.39453 17.4699H7.33113C7.56973 17.4699 7.80076 17.5023 8.02072 17.562C8.01439 17.6582 8.01006 17.7549 8.01006 17.8525ZM20.2321 25.68H9.76787V17.8524C9.76787 16.3985 10.9507 15.2157 12.4046 15.2157H17.5954C19.0493 15.2157 20.2321 16.3985 20.2321 17.8524V25.68ZM28.2422 24.801C28.2422 25.2857 27.8479 25.68 27.3633 25.68H21.9899V17.8524C21.9899 17.7547 21.9856 17.6581 21.9793 17.562C22.1992 17.5023 22.4303 17.4699 22.6689 17.4699H25.6055C27.0594 17.4699 28.2422 18.6527 28.2422 20.1066V24.801Z" fill="#981B1E"/>
<path d="M5.8628 7.41235C3.70954 7.41235 1.95776 9.16413 1.95776 11.3174C1.95771 13.4707 3.70954 15.2224 5.8628 15.2224C8.01601 15.2224 9.76784 13.4707 9.76784 11.3174C9.76784 9.16413 8.01606 7.41235 5.8628 7.41235ZM5.86274 13.4646C4.67874 13.4646 3.71552 12.5014 3.71552 11.3174C3.71552 10.1334 4.67874 9.17017 5.86274 9.17017C7.04675 9.17017 8.00997 10.1334 8.00997 11.3174C8.00997 12.5014 7.04675 13.4646 5.86274 13.4646Z" fill="#981B1E"/>
<path d="M15 2.56226C12.1233 2.56226 9.78296 4.90261 9.78296 7.77933C9.78296 10.656 12.1233 12.9964 15 12.9964C17.8767 12.9964 20.2171 10.656 20.2171 7.77933C20.2171 4.90267 17.8767 2.56226 15 2.56226ZM15 11.2386C13.0926 11.2386 11.5408 9.68679 11.5408 7.77933C11.5408 5.87192 13.0926 4.32007 15 4.32007C16.9075 4.32007 18.4593 5.87186 18.4593 7.77933C18.4593 9.68679 16.9075 11.2386 15 11.2386Z" fill="#981B1E"/>
<path d="M24.1372 7.41235C21.984 7.41235 20.2322 9.16413 20.2322 11.3174C20.2322 13.4707 21.984 15.2224 24.1372 15.2224C26.2905 15.2224 28.0423 13.4707 28.0423 11.3174C28.0423 9.16413 26.2905 7.41235 24.1372 7.41235ZM24.1372 13.4646C22.9533 13.4646 21.99 12.5014 21.99 11.3174C21.99 10.1334 22.9533 9.17017 24.1372 9.17017C25.3212 9.17017 26.2844 10.1334 26.2844 11.3174C26.2844 12.5014 25.3212 13.4646 24.1372 13.4646Z" fill="#981B1E"/>
</svg>
