<svg width="24" height="25" viewBox="0 0 24 25" fill="none" xmlns="http://www.w3.org/2000/svg">
<g clip-path="url(#clip0_302_5830)">
<path d="M11.9999 24.5C18.6167 24.5 23.9999 19.1168 23.9999 12.5001C23.9999 5.88324 18.6167 0.5 11.9999 0.5C5.38317 0.5 0 5.88324 0 12.5001C0 19.1168 5.38317 24.5 11.9999 24.5ZM4.17612 18.4245C5.12695 18.0506 6.32411 17.7526 7.6697 17.5483C7.85239 18.6451 8.09486 19.6619 8.39377 20.5589C8.55035 21.0286 8.71522 21.4432 8.88555 21.8116C6.99443 21.1774 5.35859 19.9822 4.17612 18.4245ZM2.1818 12.5001C2.1818 11.0641 2.49177 9.69914 3.04805 8.46861C4.2279 8.97369 5.71829 9.36446 7.39726 9.61674C7.31552 10.5484 7.27268 11.5151 7.27268 12.5001C7.27268 13.4849 7.31552 14.4517 7.39726 15.3833C5.71829 15.6357 4.22783 16.0265 3.04813 16.5315C2.49177 15.301 2.1818 13.9361 2.1818 12.5001ZM11.9999 2.6818C12.2348 2.6818 12.9195 3.28042 13.5364 5.1311C13.7899 5.89182 13.9984 6.75458 14.1593 7.68876C13.458 7.73777 12.7348 7.76366 11.9996 7.76366C11.2647 7.76366 10.5418 7.73785 9.84059 7.68876C10.0015 6.75458 10.21 5.89189 10.4636 5.13117C11.0804 3.28042 11.765 2.6818 11.9999 2.6818ZM11.9996 9.94547C12.8307 9.94547 13.6454 9.91492 14.4345 9.85667C14.5073 10.7079 14.5454 11.5942 14.5454 12.5001C14.5454 13.406 14.5073 14.2921 14.4345 15.1433C13.6454 15.0851 12.8309 15.0545 11.9999 15.0545C11.169 15.0545 10.3544 15.0851 9.5654 15.1433C9.49252 14.2921 9.45449 13.4059 9.45449 12.5001C9.45449 11.5942 9.49252 10.708 9.5654 9.85667C10.3543 9.91492 11.1688 9.94547 11.9996 9.94547ZM21.818 12.5001C21.818 13.936 21.5081 15.3009 20.9518 16.5314C19.772 16.0263 18.2816 15.6356 16.6026 15.3833C16.6843 14.4517 16.7272 13.485 16.7272 12.5001C16.7272 11.5151 16.6843 10.5484 16.6026 9.61667C18.2816 9.36438 19.772 8.97355 20.9517 8.46839C21.5081 9.699 21.818 11.064 21.818 12.5001ZM11.9999 22.3182C11.765 22.3182 11.0804 21.7195 10.4636 19.8689C10.21 19.1081 10.0015 18.2454 9.84059 17.3112C10.5419 17.2622 11.2649 17.2363 11.9999 17.2363C12.735 17.2363 13.458 17.2622 14.1593 17.3112C13.9984 18.2454 13.7899 19.1082 13.5364 19.8689C12.9195 21.7196 12.2349 22.3182 11.9999 22.3182ZM15.1145 21.8116C15.2847 21.4432 15.4496 21.0286 15.6062 20.5589C15.9051 19.6619 16.1476 18.6451 16.3303 17.5483C17.6757 17.7526 18.8729 18.0505 19.8237 18.4245C18.6413 19.9821 17.0056 21.1773 15.1145 21.8116ZM19.8236 6.57538C18.8729 6.94934 17.6757 7.24745 16.3302 7.45159C16.1475 6.35487 15.9051 5.33801 15.6062 4.44114C15.4497 3.9714 15.2847 3.55678 15.1144 3.18835C17.0054 3.82267 18.6412 5.01779 19.8236 6.57538ZM8.88555 3.18842C8.71522 3.55671 8.55042 3.9714 8.39377 4.44114C8.09486 5.33815 7.85239 6.35495 7.6697 7.45174C6.32411 7.24752 5.12695 6.94949 4.17612 6.5756C5.35851 5.01794 6.99436 3.8226 8.88555 3.18842Z" fill="#981B1E"/>
</g>
<defs>
<clipPath id="clip0_302_5830">
<rect width="24" height="24" fill="white" transform="translate(0 0.5)"/>
</clipPath>
</defs>
</svg>
