<svg width="21" height="15" viewBox="0 0 21 15" fill="none" xmlns="http://www.w3.org/2000/svg">
<path d="M11.2884 14.3749L7.22617 14.299C5.91092 14.2726 4.5924 14.3254 3.30294 14.0513C1.34138 13.6418 1.20241 11.6339 1.057 9.94964C0.856641 7.5818 0.934207 5.17098 1.31232 2.82291C1.52577 1.50539 2.3658 0.719218 3.66488 0.633667C8.05023 0.323192 12.4647 0.359987 16.8404 0.504835C17.3025 0.518113 17.7678 0.590689 18.2235 0.6733C20.4728 1.07622 20.5276 3.35161 20.6734 5.26707C20.8189 7.20229 20.7575 9.14745 20.4795 11.0695C20.2566 12.6609 19.8299 13.9954 18.0296 14.1243C15.7738 14.2927 13.5698 14.4284 11.3077 14.3852C11.3078 14.3749 11.2948 14.3749 11.2884 14.3749ZM8.90019 10.346C10.6001 9.34856 12.2676 8.36777 13.9577 7.37704C12.2547 6.37963 10.5904 5.39884 8.90019 4.40812V10.346Z" fill="#696974"/>
</svg>
