<svg width="24" height="24" viewBox="0 0 24 24" fill="none" xmlns="http://www.w3.org/2000/svg">
<path d="M19.7004 4H4.29959C2.47763 4 1 5.4591 1 7.25894V17.7411C1 19.5434 2.47726 21 4.29959 21H19.7004C21.5223 21 23 19.5409 23 17.7411V7.25894C23 5.45661 21.5227 4 19.7004 4ZM20.8 17.7411C20.8 18.3428 20.3069 18.8298 19.7004 18.8298H4.29959C3.69182 18.8298 3.20002 18.3443 3.20002 17.7411V7.25894C3.20002 6.65721 3.69311 6.17018 4.29959 6.17018H19.7004C20.3082 6.17018 20.8 6.65568 20.8 7.25894V17.7411Z" fill="white"/>
<path d="M17.8142 8L12 11.6335L6.18581 8L5 9.62547L12 14L19 9.62547L17.8142 8Z" fill="white"/>
</svg>
