<svg width="20" height="20" viewBox="0 0 20 20" fill="none" xmlns="http://www.w3.org/2000/svg">
<g clip-path="url(#clip0_302_6951)">
<path d="M15.9418 3.92501L13.6085 1.57501C13.3763 1.3403 13.0998 1.15391 12.7952 1.02661C12.4905 0.899315 12.1637 0.833628 11.8335 0.833344H5.8335C5.17045 0.833344 4.53457 1.09674 4.06573 1.56558C3.59689 2.03442 3.3335 2.6703 3.3335 3.33334V16.6667C3.3335 17.3297 3.59689 17.9656 4.06573 18.4344C4.53457 18.9033 5.17045 19.1667 5.8335 19.1667H14.1668C14.8299 19.1667 15.4658 18.9033 15.9346 18.4344C16.4034 17.9656 16.6668 17.3297 16.6668 16.6667V5.68334C16.6663 5.02461 16.4057 4.39271 15.9418 3.92501ZM14.6585 5.00001H13.3335C13.1125 5.00001 12.9005 4.91221 12.7442 4.75593C12.588 4.59965 12.5002 4.38769 12.5002 4.16668V2.82501L14.6585 5.00001ZM14.1668 17.5H5.8335C5.61248 17.5 5.40052 17.4122 5.24424 17.2559C5.08796 17.0997 5.00016 16.8877 5.00016 16.6667V3.33334C5.00016 3.11233 5.08796 2.90037 5.24424 2.74409C5.40052 2.58781 5.61248 2.50001 5.8335 2.50001H10.8335V4.16668C10.8335 4.82972 11.0969 5.4656 11.5657 5.93444C12.0346 6.40328 12.6705 6.66668 13.3335 6.66668H15.0002V16.6667C15.0002 16.8877 14.9124 17.0997 14.7561 17.2559C14.5998 17.4122 14.3878 17.5 14.1668 17.5Z" fill="#696974"/>
<path fill-rule="evenodd" clip-rule="evenodd" d="M12.357 10.2022C12.6825 9.87678 12.6825 9.34915 12.357 9.02371C12.0316 8.69827 11.5039 8.69827 11.1785 9.02371L10 10.2022L8.82149 9.02371C8.49605 8.69827 7.96841 8.69827 7.64298 9.02371C7.31754 9.34915 7.31754 9.87678 7.64298 10.2022L8.82149 11.3807L7.64298 12.5592C7.31754 12.8847 7.31754 13.4123 7.64298 13.7378C7.96841 14.0632 8.49605 14.0632 8.82149 13.7378L10 12.5592L11.1785 13.7378C11.5039 14.0632 12.0316 14.0632 12.357 13.7378C12.6825 13.4123 12.6825 12.8847 12.357 12.5592L11.1785 11.3807L12.357 10.2022Z" fill="#696974"/>
</g>
<defs>
<clipPath id="clip0_302_6951">
<rect width="20" height="20" fill="white"/>
</clipPath>
</defs>
</svg>
